<?xml version="1.0" encoding="us-ascii" standalone="no"?><svg xmlns="http://www.w3.org/2000/svg" xmlns:xlink="http://www.w3.org/1999/xlink" contentStyleType="text/css" height="454px" preserveAspectRatio="none" style="width:1444px;height:454px;background:#FFFFFF;" version="1.1" viewBox="0 0 1444 454" width="1444px" zoomAndPan="magnify"><defs/><g><!--class AreaCalculator--><g id="elem_AreaCalculator"><rect codeLine="2" fill="#F1F1F1" height="65.6094" id="AreaCalculator" rx="2.5" ry="2.5" style="stroke:#181818;stroke-width:0.5;" width="173" x="459" y="203"/><ellipse cx="495.15" cy="219" fill="#B4A7E5" rx="11" ry="11" style="stroke:#181818;stroke-width:1.0;"/><path d="M496.1031,215.6406 L496.1031,222.2969 L497.8219,222.2969 Q498.4313,222.2969 498.6969,222.5313 Q498.9625,222.7656 498.9625,223.1563 Q498.9625,223.5313 498.6969,223.7656 Q498.4313,224 497.8219,224 L492.6813,224 Q492.0719,224 491.8063,223.7656 Q491.5406,223.5313 491.5406,223.1406 Q491.5406,222.7656 491.8063,222.5313 Q492.0719,222.2969 492.6813,222.2969 L494.4,222.2969 L494.4,215.6406 L492.6813,215.6406 Q492.0719,215.6406 491.8063,215.4063 Q491.5406,215.1719 491.5406,214.7813 Q491.5406,214.4063 491.8063,214.1719 Q492.0719,213.9375 492.6813,213.9375 L497.8219,213.9375 Q498.4313,213.9375 498.6969,214.1719 Q498.9625,214.4063 498.9625,214.7813 Q498.9625,215.1719 498.6969,215.4063 Q498.4313,215.6406 497.8219,215.6406 L496.1031,215.6406 Z " fill="#000000"/><text fill="#000000" font-family="sans-serif" font-size="14" font-style="italic" lengthAdjust="spacing" textLength="94" x="513.85" y="224.7285">AreaCalculator</text><line style="stroke:#181818;stroke-width:0.5;" x1="460" x2="631" y1="235" y2="235"/><line style="stroke:#181818;stroke-width:0.5;" x1="460" x2="631" y1="243" y2="243"/><ellipse cx="470" cy="257.3047" fill="#84BE84" rx="3" ry="3" style="stroke:#038048;stroke-width:1.0;"/><text fill="#000000" font-family="sans-serif" font-size="14" lengthAdjust="spacing" textLength="147" x="479" y="261.5332">calculateArea(): double</text></g><!--class RectangleAreaCalculator--><g id="elem_RectangleAreaCalculator"><rect codeLine="6" fill="#F1F1F1" height="118.4375" id="RectangleAreaCalculator" rx="2.5" ry="2.5" style="stroke:#181818;stroke-width:0.5;" width="375" x="7" y="329"/><ellipse cx="111.25" cy="345" fill="#ADD1B2" rx="11" ry="11" style="stroke:#181818;stroke-width:1.0;"/><path d="M114.0156,340.875 Q114.1719,340.6563 114.3594,340.5469 Q114.5469,340.4375 114.7656,340.4375 Q115.1406,340.4375 115.375,340.7031 Q115.6094,340.9531 115.6094,341.5625 L115.6094,343.0156 Q115.6094,343.625 115.375,343.8906 Q115.1406,344.1563 114.7656,344.1563 Q114.4219,344.1563 114.2188,343.9531 Q114.0156,343.7656 113.9063,343.25 Q113.8594,342.8906 113.6719,342.7031 Q113.3438,342.3281 112.7344,342.1094 Q112.125,341.8906 111.5,341.8906 Q110.7344,341.8906 110.0938,342.2188 Q109.4688,342.5469 108.9688,343.2969 Q108.4844,344.0469 108.4844,345.0781 L108.4844,346.1719 Q108.4844,347.4063 109.375,348.2344 Q110.2656,349.0469 111.8594,349.0469 Q112.7969,349.0469 113.4531,348.7969 Q113.8438,348.6406 114.2656,348.2031 Q114.5313,347.9375 114.6719,347.8594 Q114.8281,347.7813 115.0313,347.7813 Q115.3594,347.7813 115.6094,348.0469 Q115.875,348.2969 115.875,348.6406 Q115.875,348.9844 115.5313,349.3906 Q115.0313,349.9688 114.2344,350.2969 Q113.1563,350.75 111.8594,350.75 Q110.3438,350.75 109.1406,350.125 Q108.1563,349.625 107.4688,348.5625 Q106.7813,347.4844 106.7813,346.2031 L106.7813,345.0469 Q106.7813,343.7188 107.3906,342.5781 Q108.0156,341.4219 109.1094,340.8125 Q110.2031,340.1875 111.4375,340.1875 Q112.1719,340.1875 112.8125,340.3594 Q113.4688,340.5156 114.0156,340.875 Z " fill="#000000"/><text fill="#000000" font-family="sans-serif" font-size="14" lengthAdjust="spacing" textLength="158" x="131.75" y="350.7285">RectangleAreaCalculator</text><line style="stroke:#181818;stroke-width:0.5;" x1="8" x2="381" y1="361" y2="361"/><rect fill="none" height="6" style="stroke:#C82930;stroke-width:1.0;" width="6" x="15" y="372.3047"/><text fill="#000000" font-family="sans-serif" font-size="14" lengthAdjust="spacing" textLength="83" x="27" y="379.5332">width: double</text><rect fill="none" height="6" style="stroke:#C82930;stroke-width:1.0;" width="6" x="15" y="389.9141"/><text fill="#000000" font-family="sans-serif" font-size="14" lengthAdjust="spacing" textLength="90" x="27" y="397.1426">height: double</text><line style="stroke:#181818;stroke-width:0.5;" x1="8" x2="381" y1="404.2188" y2="404.2188"/><ellipse cx="18" cy="418.5234" fill="#84BE84" rx="3" ry="3" style="stroke:#038048;stroke-width:1.0;"/><text fill="#000000" font-family="sans-serif" font-size="14" lengthAdjust="spacing" textLength="349" x="27" y="422.752">RectangleAreaCalculator(width: double, height: double)</text><ellipse cx="18" cy="436.1328" fill="#84BE84" rx="3" ry="3" style="stroke:#038048;stroke-width:1.0;"/><text fill="#000000" font-family="sans-serif" font-size="14" lengthAdjust="spacing" textLength="147" x="27" y="440.3613">calculateArea(): double</text></g><!--class CircleAreaCalculator--><g id="elem_CircleAreaCalculator"><rect codeLine="13" fill="#F1F1F1" height="100.8281" id="CircleAreaCalculator" rx="2.5" ry="2.5" style="stroke:#181818;stroke-width:0.5;" width="256" x="417.5" y="337.5"/><ellipse cx="476.25" cy="353.5" fill="#ADD1B2" rx="11" ry="11" style="stroke:#181818;stroke-width:1.0;"/><path d="M479.0156,349.375 Q479.1719,349.1563 479.3594,349.0469 Q479.5469,348.9375 479.7656,348.9375 Q480.1406,348.9375 480.375,349.2031 Q480.6094,349.4531 480.6094,350.0625 L480.6094,351.5156 Q480.6094,352.125 480.375,352.3906 Q480.1406,352.6563 479.7656,352.6563 Q479.4219,352.6563 479.2188,352.4531 Q479.0156,352.2656 478.9063,351.75 Q478.8594,351.3906 478.6719,351.2031 Q478.3438,350.8281 477.7344,350.6094 Q477.125,350.3906 476.5,350.3906 Q475.7344,350.3906 475.0938,350.7188 Q474.4688,351.0469 473.9688,351.7969 Q473.4844,352.5469 473.4844,353.5781 L473.4844,354.6719 Q473.4844,355.9063 474.375,356.7344 Q475.2656,357.5469 476.8594,357.5469 Q477.7969,357.5469 478.4531,357.2969 Q478.8438,357.1406 479.2656,356.7031 Q479.5313,356.4375 479.6719,356.3594 Q479.8281,356.2813 480.0313,356.2813 Q480.3594,356.2813 480.6094,356.5469 Q480.875,356.7969 480.875,357.1406 Q480.875,357.4844 480.5313,357.8906 Q480.0313,358.4688 479.2344,358.7969 Q478.1563,359.25 476.8594,359.25 Q475.3438,359.25 474.1406,358.625 Q473.1563,358.125 472.4688,357.0625 Q471.7813,355.9844 471.7813,354.7031 L471.7813,353.5469 Q471.7813,352.2188 472.3906,351.0781 Q473.0156,349.9219 474.1094,349.3125 Q475.2031,348.6875 476.4375,348.6875 Q477.1719,348.6875 477.8125,348.8594 Q478.4688,349.0156 479.0156,349.375 Z " fill="#000000"/><text fill="#000000" font-family="sans-serif" font-size="14" lengthAdjust="spacing" textLength="130" x="496.75" y="359.2285">CircleAreaCalculator</text><line style="stroke:#181818;stroke-width:0.5;" x1="418.5" x2="672.5" y1="369.5" y2="369.5"/><rect fill="none" height="6" style="stroke:#C82930;stroke-width:1.0;" width="6" x="425.5" y="380.8047"/><text fill="#000000" font-family="sans-serif" font-size="14" lengthAdjust="spacing" textLength="90" x="437.5" y="388.0332">radius: double</text><line style="stroke:#181818;stroke-width:0.5;" x1="418.5" x2="672.5" y1="395.1094" y2="395.1094"/><ellipse cx="428.5" cy="409.4141" fill="#84BE84" rx="3" ry="3" style="stroke:#038048;stroke-width:1.0;"/><text fill="#000000" font-family="sans-serif" font-size="14" lengthAdjust="spacing" textLength="230" x="437.5" y="413.6426">CircleAreaCalculator(radius: double)</text><ellipse cx="428.5" cy="427.0234" fill="#84BE84" rx="3" ry="3" style="stroke:#038048;stroke-width:1.0;"/><text fill="#000000" font-family="sans-serif" font-size="14" lengthAdjust="spacing" textLength="147" x="437.5" y="431.252">calculateArea(): double</text></g><!--class PerimeterCalculator--><g id="elem_PerimeterCalculator"><rect codeLine="19" fill="#F1F1F1" height="65.6094" id="PerimeterCalculator" rx="2.5" ry="2.5" style="stroke:#181818;stroke-width:0.5;" width="204" x="809.5" y="203"/><ellipse cx="845.65" cy="219" fill="#B4A7E5" rx="11" ry="11" style="stroke:#181818;stroke-width:1.0;"/><path d="M846.6031,215.6406 L846.6031,222.2969 L848.3219,222.2969 Q848.9313,222.2969 849.1969,222.5313 Q849.4625,222.7656 849.4625,223.1563 Q849.4625,223.5313 849.1969,223.7656 Q848.9313,224 848.3219,224 L843.1813,224 Q842.5719,224 842.3063,223.7656 Q842.0406,223.5313 842.0406,223.1406 Q842.0406,222.7656 842.3063,222.5313 Q842.5719,222.2969 843.1813,222.2969 L844.9,222.2969 L844.9,215.6406 L843.1813,215.6406 Q842.5719,215.6406 842.3063,215.4063 Q842.0406,215.1719 842.0406,214.7813 Q842.0406,214.4063 842.3063,214.1719 Q842.5719,213.9375 843.1813,213.9375 L848.3219,213.9375 Q848.9313,213.9375 849.1969,214.1719 Q849.4625,214.4063 849.4625,214.7813 Q849.4625,215.1719 849.1969,215.4063 Q848.9313,215.6406 848.3219,215.6406 L846.6031,215.6406 Z " fill="#000000"/><text fill="#000000" font-family="sans-serif" font-size="14" font-style="italic" lengthAdjust="spacing" textLength="125" x="864.35" y="224.7285">PerimeterCalculator</text><line style="stroke:#181818;stroke-width:0.5;" x1="810.5" x2="1012.5" y1="235" y2="235"/><line style="stroke:#181818;stroke-width:0.5;" x1="810.5" x2="1012.5" y1="243" y2="243"/><ellipse cx="820.5" cy="257.3047" fill="#84BE84" rx="3" ry="3" style="stroke:#038048;stroke-width:1.0;"/><text fill="#000000" font-family="sans-serif" font-size="14" lengthAdjust="spacing" textLength="178" x="829.5" y="261.5332">calculatePerimeter(): double</text></g><!--class RectanglePerimeterCalculator--><g id="elem_RectanglePerimeterCalculator"><rect codeLine="23" fill="#F1F1F1" height="118.4375" id="RectanglePerimeterCalculator" rx="2.5" ry="2.5" style="stroke:#181818;stroke-width:0.5;" width="406" x="708.5" y="329"/><ellipse cx="812.75" cy="345" fill="#ADD1B2" rx="11" ry="11" style="stroke:#181818;stroke-width:1.0;"/><path d="M815.5156,340.875 Q815.6719,340.6563 815.8594,340.5469 Q816.0469,340.4375 816.2656,340.4375 Q816.6406,340.4375 816.875,340.7031 Q817.1094,340.9531 817.1094,341.5625 L817.1094,343.0156 Q817.1094,343.625 816.875,343.8906 Q816.6406,344.1563 816.2656,344.1563 Q815.9219,344.1563 815.7188,343.9531 Q815.5156,343.7656 815.4063,343.25 Q815.3594,342.8906 815.1719,342.7031 Q814.8438,342.3281 814.2344,342.1094 Q813.625,341.8906 813,341.8906 Q812.2344,341.8906 811.5938,342.2188 Q810.9688,342.5469 810.4688,343.2969 Q809.9844,344.0469 809.9844,345.0781 L809.9844,346.1719 Q809.9844,347.4063 810.875,348.2344 Q811.7656,349.0469 813.3594,349.0469 Q814.2969,349.0469 814.9531,348.7969 Q815.3438,348.6406 815.7656,348.2031 Q816.0313,347.9375 816.1719,347.8594 Q816.3281,347.7813 816.5313,347.7813 Q816.8594,347.7813 817.1094,348.0469 Q817.375,348.2969 817.375,348.6406 Q817.375,348.9844 817.0313,349.3906 Q816.5313,349.9688 815.7344,350.2969 Q814.6563,350.75 813.3594,350.75 Q811.8438,350.75 810.6406,350.125 Q809.6563,349.625 808.9688,348.5625 Q808.2813,347.4844 808.2813,346.2031 L808.2813,345.0469 Q808.2813,343.7188 808.8906,342.5781 Q809.5156,341.4219 810.6094,340.8125 Q811.7031,340.1875 812.9375,340.1875 Q813.6719,340.1875 814.3125,340.3594 Q814.9688,340.5156 815.5156,340.875 Z " fill="#000000"/><text fill="#000000" font-family="sans-serif" font-size="14" lengthAdjust="spacing" textLength="189" x="833.25" y="350.7285">RectanglePerimeterCalculator</text><line style="stroke:#181818;stroke-width:0.5;" x1="709.5" x2="1113.5" y1="361" y2="361"/><rect fill="none" height="6" style="stroke:#C82930;stroke-width:1.0;" width="6" x="716.5" y="372.3047"/><text fill="#000000" font-family="sans-serif" font-size="14" lengthAdjust="spacing" textLength="83" x="728.5" y="379.5332">width: double</text><rect fill="none" height="6" style="stroke:#C82930;stroke-width:1.0;" width="6" x="716.5" y="389.9141"/><text fill="#000000" font-family="sans-serif" font-size="14" lengthAdjust="spacing" textLength="90" x="728.5" y="397.1426">height: double</text><line style="stroke:#181818;stroke-width:0.5;" x1="709.5" x2="1113.5" y1="404.2188" y2="404.2188"/><ellipse cx="719.5" cy="418.5234" fill="#84BE84" rx="3" ry="3" style="stroke:#038048;stroke-width:1.0;"/><text fill="#000000" font-family="sans-serif" font-size="14" lengthAdjust="spacing" textLength="380" x="728.5" y="422.752">RectanglePerimeterCalculator(width: double, height: double)</text><ellipse cx="719.5" cy="436.1328" fill="#84BE84" rx="3" ry="3" style="stroke:#038048;stroke-width:1.0;"/><text fill="#000000" font-family="sans-serif" font-size="14" lengthAdjust="spacing" textLength="178" x="728.5" y="440.3613">calculatePerimeter(): double</text></g><!--class CirclePerimeterCalculator--><g id="elem_CirclePerimeterCalculator"><rect codeLine="30" fill="#F1F1F1" height="100.8281" id="CirclePerimeterCalculator" rx="2.5" ry="2.5" style="stroke:#181818;stroke-width:0.5;" width="287" x="1150" y="337.5"/><ellipse cx="1208.75" cy="353.5" fill="#ADD1B2" rx="11" ry="11" style="stroke:#181818;stroke-width:1.0;"/><path d="M1211.5156,349.375 Q1211.6719,349.1563 1211.8594,349.0469 Q1212.0469,348.9375 1212.2656,348.9375 Q1212.6406,348.9375 1212.875,349.2031 Q1213.1094,349.4531 1213.1094,350.0625 L1213.1094,351.5156 Q1213.1094,352.125 1212.875,352.3906 Q1212.6406,352.6563 1212.2656,352.6563 Q1211.9219,352.6563 1211.7188,352.4531 Q1211.5156,352.2656 1211.4063,351.75 Q1211.3594,351.3906 1211.1719,351.2031 Q1210.8438,350.8281 1210.2344,350.6094 Q1209.625,350.3906 1209,350.3906 Q1208.2344,350.3906 1207.5938,350.7188 Q1206.9688,351.0469 1206.4688,351.7969 Q1205.9844,352.5469 1205.9844,353.5781 L1205.9844,354.6719 Q1205.9844,355.9063 1206.875,356.7344 Q1207.7656,357.5469 1209.3594,357.5469 Q1210.2969,357.5469 1210.9531,357.2969 Q1211.3438,357.1406 1211.7656,356.7031 Q1212.0313,356.4375 1212.1719,356.3594 Q1212.3281,356.2813 1212.5313,356.2813 Q1212.8594,356.2813 1213.1094,356.5469 Q1213.375,356.7969 1213.375,357.1406 Q1213.375,357.4844 1213.0313,357.8906 Q1212.5313,358.4688 1211.7344,358.7969 Q1210.6563,359.25 1209.3594,359.25 Q1207.8438,359.25 1206.6406,358.625 Q1205.6563,358.125 1204.9688,357.0625 Q1204.2813,355.9844 1204.2813,354.7031 L1204.2813,353.5469 Q1204.2813,352.2188 1204.8906,351.0781 Q1205.5156,349.9219 1206.6094,349.3125 Q1207.7031,348.6875 1208.9375,348.6875 Q1209.6719,348.6875 1210.3125,348.8594 Q1210.9688,349.0156 1211.5156,349.375 Z " fill="#000000"/><text fill="#000000" font-family="sans-serif" font-size="14" lengthAdjust="spacing" textLength="161" x="1229.25" y="359.2285">CirclePerimeterCalculator</text><line style="stroke:#181818;stroke-width:0.5;" x1="1151" x2="1436" y1="369.5" y2="369.5"/><rect fill="none" height="6" style="stroke:#C82930;stroke-width:1.0;" width="6" x="1158" y="380.8047"/><text fill="#000000" font-family="sans-serif" font-size="14" lengthAdjust="spacing" textLength="90" x="1170" y="388.0332">radius: double</text><line style="stroke:#181818;stroke-width:0.5;" x1="1151" x2="1436" y1="395.1094" y2="395.1094"/><ellipse cx="1161" cy="409.4141" fill="#84BE84" rx="3" ry="3" style="stroke:#038048;stroke-width:1.0;"/><text fill="#000000" font-family="sans-serif" font-size="14" lengthAdjust="spacing" textLength="261" x="1170" y="413.6426">CirclePerimeterCalculator(radius: double)</text><ellipse cx="1161" cy="427.0234" fill="#84BE84" rx="3" ry="3" style="stroke:#038048;stroke-width:1.0;"/><text fill="#000000" font-family="sans-serif" font-size="14" lengthAdjust="spacing" textLength="178" x="1170" y="431.252">calculatePerimeter(): double</text></g><!--class Shape--><g id="elem_Shape"><rect codeLine="36" fill="#F1F1F1" height="136.0469" id="Shape" rx="2.5" ry="2.5" style="stroke:#181818;stroke-width:0.5;" width="537" x="460" y="7"/><ellipse cx="703.75" cy="23" fill="#ADD1B2" rx="11" ry="11" style="stroke:#181818;stroke-width:1.0;"/><path d="M706.5156,18.875 Q706.6719,18.6563 706.8594,18.5469 Q707.0469,18.4375 707.2656,18.4375 Q707.6406,18.4375 707.875,18.7031 Q708.1094,18.9531 708.1094,19.5625 L708.1094,21.0156 Q708.1094,21.625 707.875,21.8906 Q707.6406,22.1563 707.2656,22.1563 Q706.9219,22.1563 706.7188,21.9531 Q706.5156,21.7656 706.4063,21.25 Q706.3594,20.8906 706.1719,20.7031 Q705.8438,20.3281 705.2344,20.1094 Q704.625,19.8906 704,19.8906 Q703.2344,19.8906 702.5938,20.2188 Q701.9688,20.5469 701.4688,21.2969 Q700.9844,22.0469 700.9844,23.0781 L700.9844,24.1719 Q700.9844,25.4063 701.875,26.2344 Q702.7656,27.0469 704.3594,27.0469 Q705.2969,27.0469 705.9531,26.7969 Q706.3438,26.6406 706.7656,26.2031 Q707.0313,25.9375 707.1719,25.8594 Q707.3281,25.7813 707.5313,25.7813 Q707.8594,25.7813 708.1094,26.0469 Q708.375,26.2969 708.375,26.6406 Q708.375,26.9844 708.0313,27.3906 Q707.5313,27.9688 706.7344,28.2969 Q705.6563,28.75 704.3594,28.75 Q702.8438,28.75 701.6406,28.125 Q700.6563,27.625 699.9688,26.5625 Q699.2813,25.4844 699.2813,24.2031 L699.2813,23.0469 Q699.2813,21.7188 699.8906,20.5781 Q700.5156,19.4219 701.6094,18.8125 Q702.7031,18.1875 703.9375,18.1875 Q704.6719,18.1875 705.3125,18.3594 Q705.9688,18.5156 706.5156,18.875 Z " fill="#000000"/><text fill="#000000" font-family="sans-serif" font-size="14" lengthAdjust="spacing" textLength="41" x="724.25" y="28.7285">Shape</text><line style="stroke:#181818;stroke-width:0.5;" x1="461" x2="996" y1="39" y2="39"/><rect fill="none" height="6" style="stroke:#C82930;stroke-width:1.0;" width="6" x="468" y="50.3047"/><text fill="#000000" font-family="sans-serif" font-size="14" lengthAdjust="spacing" textLength="191" x="480" y="57.5332">AreaCalculator areaCalculator</text><rect fill="none" height="6" style="stroke:#C82930;stroke-width:1.0;" width="6" x="468" y="67.9141"/><text fill="#000000" font-family="sans-serif" font-size="14" lengthAdjust="spacing" textLength="253" x="480" y="75.1426">PerimeterCalculator perimeterCalculator</text><line style="stroke:#181818;stroke-width:0.5;" x1="461" x2="996" y1="82.2188" y2="82.2188"/><ellipse cx="471" cy="96.5234" fill="#84BE84" rx="3" ry="3" style="stroke:#038048;stroke-width:1.0;"/><text fill="#000000" font-family="sans-serif" font-size="14" lengthAdjust="spacing" textLength="511" x="480" y="100.752">Shape(areaCalculator: AreaCalculator, perimeterCalculator: PerimeterCalculator)</text><ellipse cx="471" cy="114.1328" fill="#84BE84" rx="3" ry="3" style="stroke:#038048;stroke-width:1.0;"/><text fill="#000000" font-family="sans-serif" font-size="14" lengthAdjust="spacing" textLength="111" x="480" y="118.3613">getArea(): double</text><ellipse cx="471" cy="131.7422" fill="#84BE84" rx="3" ry="3" style="stroke:#038048;stroke-width:1.0;"/><text fill="#000000" font-family="sans-serif" font-size="14" lengthAdjust="spacing" textLength="142" x="480" y="135.9707">getPerimeter(): double</text></g><!--reverse link AreaCalculator to RectangleAreaCalculator--><g id="link_AreaCalculator_RectangleAreaCalculator"><path codeLine="44" d="M453.6482,276.2539 C412.9582,293.6439 378.01,308.58 330.57,328.85 " fill="none" id="AreaCalculator-backto-RectangleAreaCalculator" style="stroke:#181818;stroke-width:1.0;stroke-dasharray:7.0,7.0;"/><polygon fill="none" points="470.2,269.18,451.2903,270.7366,456.0062,281.7711,470.2,269.18" style="stroke:#181818;stroke-width:1.0;"/></g><!--reverse link AreaCalculator to CircleAreaCalculator--><g id="link_AreaCalculator_CircleAreaCalculator"><path codeLine="45" d="M545.5,287.18 C545.5,307.06 545.5,314.99 545.5,337.46 " fill="none" id="AreaCalculator-backto-CircleAreaCalculator" style="stroke:#181818;stroke-width:1.0;stroke-dasharray:7.0,7.0;"/><polygon fill="none" points="545.5,269.18,539.5,287.18,551.5,287.18,545.5,269.18" style="stroke:#181818;stroke-width:1.0;"/></g><!--reverse link PerimeterCalculator to RectanglePerimeterCalculator--><g id="link_PerimeterCalculator_RectanglePerimeterCalculator"><path codeLine="46" d="M911.5,287.18 C911.5,304.57 911.5,308.58 911.5,328.85 " fill="none" id="PerimeterCalculator-backto-RectanglePerimeterCalculator" style="stroke:#181818;stroke-width:1.0;stroke-dasharray:7.0,7.0;"/><polygon fill="none" points="911.5,269.18,905.5,287.18,917.5,287.18,911.5,269.18" style="stroke:#181818;stroke-width:1.0;"/></g><!--reverse link PerimeterCalculator to CirclePerimeterCalculator--><g id="link_PerimeterCalculator_CirclePerimeterCalculator"><path codeLine="47" d="M1010.2051,275.7576 C1060.8451,295.6376 1110.11,314.99 1167.33,337.46 " fill="none" id="PerimeterCalculator-backto-CirclePerimeterCalculator" style="stroke:#181818;stroke-width:1.0;stroke-dasharray:7.0,7.0;"/><polygon fill="none" points="993.45,269.18,1008.0126,281.3427,1012.3977,270.1726,993.45,269.18" style="stroke:#181818;stroke-width:1.0;"/></g><!--reverse link Shape to AreaCalculator--><g id="link_Shape_AreaCalculator"><path codeLine="48" d="M642.1001,151.0689 C618.2901,171.7489 602.24,185.7 582.48,202.87 " fill="none" id="Shape-backto-AreaCalculator" style="stroke:#181818;stroke-width:1.0;"/><polygon fill="#181818" points="651.16,143.2,644.0071,144.1145,642.1001,151.0689,649.253,150.1544,651.16,143.2" style="stroke:#181818;stroke-width:1.0;"/></g><!--reverse link Shape to PerimeterCalculator--><g id="link_Shape_PerimeterCalculator"><path codeLine="49" d="M814.8999,151.0689 C838.7099,171.7489 854.76,185.7 874.52,202.87 " fill="none" id="Shape-backto-PerimeterCalculator" style="stroke:#181818;stroke-width:1.0;"/><polygon fill="#181818" points="805.84,143.2,807.747,150.1544,814.8999,151.0689,812.9929,144.1145,805.84,143.2" style="stroke:#181818;stroke-width:1.0;"/></g><!--SRC=[dLD93i8m3Bpd5JcMfJoWueBu088NcDIqaSAYD1K7uEyiAHKEJbXwYpCp7OyTlNDeDw1GpYp278ng3RYzbISXRzz8THMyNsU3GfRxTcrGN8HG1ff6Bb4vs5K6AT_JywCkNTsJ7gKQTLKxKXj5H3927qjA7NpfSAwjYjYpKEgseLuuU4Q1d_-i-rWNQFKMRwT4jZqc6J2Zz6VAZD9lKISD-m3ZRkEXSxxIoIUDh6euO1Ts7gmtaAE7SACwlDUyXOTuHcMAu16DENh1hKJNLuKksALdET9eqDNqF9d4NYIBvPPTS3bGPGOHPqLdA_o0XdaUvFPomT6k]--></g></svg>