<?xml version="1.0" encoding="us-ascii" standalone="no"?><svg xmlns="http://www.w3.org/2000/svg" xmlns:xlink="http://www.w3.org/1999/xlink" contentStyleType="text/css" height="401px" preserveAspectRatio="none" style="width:713px;height:401px;background:#FFFFFF;" version="1.1" viewBox="0 0 713 401" width="713px" zoomAndPan="magnify"><defs/><g><!--class Engine--><g id="elem_Engine"><rect codeLine="2" fill="#F1F1F1" height="65.6094" id="Engine" rx="2.5" ry="2.5" style="stroke:#181818;stroke-width:0.5;" width="76" x="197" y="203"/><ellipse cx="212" cy="219" fill="#B4A7E5" rx="11" ry="11" style="stroke:#181818;stroke-width:1.0;"/><path d="M212.9531,215.6406 L212.9531,222.2969 L214.6719,222.2969 Q215.2813,222.2969 215.5469,222.5313 Q215.8125,222.7656 215.8125,223.1563 Q215.8125,223.5313 215.5469,223.7656 Q215.2813,224 214.6719,224 L209.5313,224 Q208.9219,224 208.6563,223.7656 Q208.3906,223.5313 208.3906,223.1406 Q208.3906,222.7656 208.6563,222.5313 Q208.9219,222.2969 209.5313,222.2969 L211.25,222.2969 L211.25,215.6406 L209.5313,215.6406 Q208.9219,215.6406 208.6563,215.4063 Q208.3906,215.1719 208.3906,214.7813 Q208.3906,214.4063 208.6563,214.1719 Q208.9219,213.9375 209.5313,213.9375 L214.6719,213.9375 Q215.2813,213.9375 215.5469,214.1719 Q215.8125,214.4063 215.8125,214.7813 Q215.8125,215.1719 215.5469,215.4063 Q215.2813,215.6406 214.6719,215.6406 L212.9531,215.6406 Z " fill="#000000"/><text fill="#000000" font-family="sans-serif" font-size="14" font-style="italic" lengthAdjust="spacing" textLength="44" x="226" y="224.7285">Engine</text><line style="stroke:#181818;stroke-width:0.5;" x1="198" x2="272" y1="235" y2="235"/><line style="stroke:#181818;stroke-width:0.5;" x1="198" x2="272" y1="243" y2="243"/><ellipse cx="208" cy="257.3047" fill="#84BE84" rx="3" ry="3" style="stroke:#038048;stroke-width:1.0;"/><text fill="#000000" font-family="sans-serif" font-size="14" lengthAdjust="spacing" textLength="38" x="217" y="261.5332">start()</text></g><!--class GasolineEngine--><g id="elem_GasolineEngine"><rect codeLine="6" fill="#F1F1F1" height="65.6094" id="GasolineEngine" rx="2.5" ry="2.5" style="stroke:#181818;stroke-width:0.5;" width="132" x="7" y="329"/><ellipse cx="22" cy="345" fill="#ADD1B2" rx="11" ry="11" style="stroke:#181818;stroke-width:1.0;"/><path d="M24.7656,340.875 Q24.9219,340.6563 25.1094,340.5469 Q25.2969,340.4375 25.5156,340.4375 Q25.8906,340.4375 26.125,340.7031 Q26.3594,340.9531 26.3594,341.5625 L26.3594,343.0156 Q26.3594,343.625 26.125,343.8906 Q25.8906,344.1563 25.5156,344.1563 Q25.1719,344.1563 24.9688,343.9531 Q24.7656,343.7656 24.6563,343.25 Q24.6094,342.8906 24.4219,342.7031 Q24.0938,342.3281 23.4844,342.1094 Q22.875,341.8906 22.25,341.8906 Q21.4844,341.8906 20.8438,342.2188 Q20.2188,342.5469 19.7188,343.2969 Q19.2344,344.0469 19.2344,345.0781 L19.2344,346.1719 Q19.2344,347.4063 20.125,348.2344 Q21.0156,349.0469 22.6094,349.0469 Q23.5469,349.0469 24.2031,348.7969 Q24.5938,348.6406 25.0156,348.2031 Q25.2813,347.9375 25.4219,347.8594 Q25.5781,347.7813 25.7813,347.7813 Q26.1094,347.7813 26.3594,348.0469 Q26.625,348.2969 26.625,348.6406 Q26.625,348.9844 26.2813,349.3906 Q25.7813,349.9688 24.9844,350.2969 Q23.9063,350.75 22.6094,350.75 Q21.0938,350.75 19.8906,350.125 Q18.9063,349.625 18.2188,348.5625 Q17.5313,347.4844 17.5313,346.2031 L17.5313,345.0469 Q17.5313,343.7188 18.1406,342.5781 Q18.7656,341.4219 19.8594,340.8125 Q20.9531,340.1875 22.1875,340.1875 Q22.9219,340.1875 23.5625,340.3594 Q24.2188,340.5156 24.7656,340.875 Z " fill="#000000"/><text fill="#000000" font-family="sans-serif" font-size="14" lengthAdjust="spacing" textLength="100" x="36" y="350.7285">GasolineEngine</text><line style="stroke:#181818;stroke-width:0.5;" x1="8" x2="138" y1="361" y2="361"/><line style="stroke:#181818;stroke-width:0.5;" x1="8" x2="138" y1="369" y2="369"/><ellipse cx="18" cy="383.3047" fill="#84BE84" rx="3" ry="3" style="stroke:#038048;stroke-width:1.0;"/><text fill="#000000" font-family="sans-serif" font-size="14" lengthAdjust="spacing" textLength="38" x="27" y="387.5332">start()</text></g><!--class ElectricEngine--><g id="elem_ElectricEngine"><rect codeLine="10" fill="#F1F1F1" height="65.6094" id="ElectricEngine" rx="2.5" ry="2.5" style="stroke:#181818;stroke-width:0.5;" width="122" x="174" y="329"/><ellipse cx="189" cy="345" fill="#ADD1B2" rx="11" ry="11" style="stroke:#181818;stroke-width:1.0;"/><path d="M191.7656,340.875 Q191.9219,340.6563 192.1094,340.5469 Q192.2969,340.4375 192.5156,340.4375 Q192.8906,340.4375 193.125,340.7031 Q193.3594,340.9531 193.3594,341.5625 L193.3594,343.0156 Q193.3594,343.625 193.125,343.8906 Q192.8906,344.1563 192.5156,344.1563 Q192.1719,344.1563 191.9688,343.9531 Q191.7656,343.7656 191.6563,343.25 Q191.6094,342.8906 191.4219,342.7031 Q191.0938,342.3281 190.4844,342.1094 Q189.875,341.8906 189.25,341.8906 Q188.4844,341.8906 187.8438,342.2188 Q187.2188,342.5469 186.7188,343.2969 Q186.2344,344.0469 186.2344,345.0781 L186.2344,346.1719 Q186.2344,347.4063 187.125,348.2344 Q188.0156,349.0469 189.6094,349.0469 Q190.5469,349.0469 191.2031,348.7969 Q191.5938,348.6406 192.0156,348.2031 Q192.2813,347.9375 192.4219,347.8594 Q192.5781,347.7813 192.7813,347.7813 Q193.1094,347.7813 193.3594,348.0469 Q193.625,348.2969 193.625,348.6406 Q193.625,348.9844 193.2813,349.3906 Q192.7813,349.9688 191.9844,350.2969 Q190.9063,350.75 189.6094,350.75 Q188.0938,350.75 186.8906,350.125 Q185.9063,349.625 185.2188,348.5625 Q184.5313,347.4844 184.5313,346.2031 L184.5313,345.0469 Q184.5313,343.7188 185.1406,342.5781 Q185.7656,341.4219 186.8594,340.8125 Q187.9531,340.1875 189.1875,340.1875 Q189.9219,340.1875 190.5625,340.3594 Q191.2188,340.5156 191.7656,340.875 Z " fill="#000000"/><text fill="#000000" font-family="sans-serif" font-size="14" lengthAdjust="spacing" textLength="90" x="203" y="350.7285">ElectricEngine</text><line style="stroke:#181818;stroke-width:0.5;" x1="175" x2="295" y1="361" y2="361"/><line style="stroke:#181818;stroke-width:0.5;" x1="175" x2="295" y1="369" y2="369"/><ellipse cx="185" cy="383.3047" fill="#84BE84" rx="3" ry="3" style="stroke:#038048;stroke-width:1.0;"/><text fill="#000000" font-family="sans-serif" font-size="14" lengthAdjust="spacing" textLength="38" x="194" y="387.5332">start()</text></g><!--class Transmission--><g id="elem_Transmission"><rect codeLine="14" fill="#F1F1F1" height="65.6094" id="Transmission" rx="2.5" ry="2.5" style="stroke:#181818;stroke-width:0.5;" width="116" x="354" y="203"/><ellipse cx="369" cy="219" fill="#B4A7E5" rx="11" ry="11" style="stroke:#181818;stroke-width:1.0;"/><path d="M369.9531,215.6406 L369.9531,222.2969 L371.6719,222.2969 Q372.2813,222.2969 372.5469,222.5313 Q372.8125,222.7656 372.8125,223.1563 Q372.8125,223.5313 372.5469,223.7656 Q372.2813,224 371.6719,224 L366.5313,224 Q365.9219,224 365.6563,223.7656 Q365.3906,223.5313 365.3906,223.1406 Q365.3906,222.7656 365.6563,222.5313 Q365.9219,222.2969 366.5313,222.2969 L368.25,222.2969 L368.25,215.6406 L366.5313,215.6406 Q365.9219,215.6406 365.6563,215.4063 Q365.3906,215.1719 365.3906,214.7813 Q365.3906,214.4063 365.6563,214.1719 Q365.9219,213.9375 366.5313,213.9375 L371.6719,213.9375 Q372.2813,213.9375 372.5469,214.1719 Q372.8125,214.4063 372.8125,214.7813 Q372.8125,215.1719 372.5469,215.4063 Q372.2813,215.6406 371.6719,215.6406 L369.9531,215.6406 Z " fill="#000000"/><text fill="#000000" font-family="sans-serif" font-size="14" font-style="italic" lengthAdjust="spacing" textLength="84" x="383" y="224.7285">Transmission</text><line style="stroke:#181818;stroke-width:0.5;" x1="355" x2="469" y1="235" y2="235"/><line style="stroke:#181818;stroke-width:0.5;" x1="355" x2="469" y1="243" y2="243"/><ellipse cx="365" cy="257.3047" fill="#84BE84" rx="3" ry="3" style="stroke:#038048;stroke-width:1.0;"/><text fill="#000000" font-family="sans-serif" font-size="14" lengthAdjust="spacing" textLength="89" x="374" y="261.5332">changeGear()</text></g><!--class ManualTransmission--><g id="elem_ManualTransmission"><rect codeLine="18" fill="#F1F1F1" height="65.6094" id="ManualTransmission" rx="2.5" ry="2.5" style="stroke:#181818;stroke-width:0.5;" width="162" x="331" y="329"/><ellipse cx="346" cy="345" fill="#ADD1B2" rx="11" ry="11" style="stroke:#181818;stroke-width:1.0;"/><path d="M348.7656,340.875 Q348.9219,340.6563 349.1094,340.5469 Q349.2969,340.4375 349.5156,340.4375 Q349.8906,340.4375 350.125,340.7031 Q350.3594,340.9531 350.3594,341.5625 L350.3594,343.0156 Q350.3594,343.625 350.125,343.8906 Q349.8906,344.1563 349.5156,344.1563 Q349.1719,344.1563 348.9688,343.9531 Q348.7656,343.7656 348.6563,343.25 Q348.6094,342.8906 348.4219,342.7031 Q348.0938,342.3281 347.4844,342.1094 Q346.875,341.8906 346.25,341.8906 Q345.4844,341.8906 344.8438,342.2188 Q344.2188,342.5469 343.7188,343.2969 Q343.2344,344.0469 343.2344,345.0781 L343.2344,346.1719 Q343.2344,347.4063 344.125,348.2344 Q345.0156,349.0469 346.6094,349.0469 Q347.5469,349.0469 348.2031,348.7969 Q348.5938,348.6406 349.0156,348.2031 Q349.2813,347.9375 349.4219,347.8594 Q349.5781,347.7813 349.7813,347.7813 Q350.1094,347.7813 350.3594,348.0469 Q350.625,348.2969 350.625,348.6406 Q350.625,348.9844 350.2813,349.3906 Q349.7813,349.9688 348.9844,350.2969 Q347.9063,350.75 346.6094,350.75 Q345.0938,350.75 343.8906,350.125 Q342.9063,349.625 342.2188,348.5625 Q341.5313,347.4844 341.5313,346.2031 L341.5313,345.0469 Q341.5313,343.7188 342.1406,342.5781 Q342.7656,341.4219 343.8594,340.8125 Q344.9531,340.1875 346.1875,340.1875 Q346.9219,340.1875 347.5625,340.3594 Q348.2188,340.5156 348.7656,340.875 Z " fill="#000000"/><text fill="#000000" font-family="sans-serif" font-size="14" lengthAdjust="spacing" textLength="130" x="360" y="350.7285">ManualTransmission</text><line style="stroke:#181818;stroke-width:0.5;" x1="332" x2="492" y1="361" y2="361"/><line style="stroke:#181818;stroke-width:0.5;" x1="332" x2="492" y1="369" y2="369"/><ellipse cx="342" cy="383.3047" fill="#84BE84" rx="3" ry="3" style="stroke:#038048;stroke-width:1.0;"/><text fill="#000000" font-family="sans-serif" font-size="14" lengthAdjust="spacing" textLength="89" x="351" y="387.5332">changeGear()</text></g><!--class AutomaticTransmission--><g id="elem_AutomaticTransmission"><rect codeLine="22" fill="#F1F1F1" height="65.6094" id="AutomaticTransmission" rx="2.5" ry="2.5" style="stroke:#181818;stroke-width:0.5;" width="178" x="528" y="329"/><ellipse cx="543" cy="345" fill="#ADD1B2" rx="11" ry="11" style="stroke:#181818;stroke-width:1.0;"/><path d="M545.7656,340.875 Q545.9219,340.6563 546.1094,340.5469 Q546.2969,340.4375 546.5156,340.4375 Q546.8906,340.4375 547.125,340.7031 Q547.3594,340.9531 547.3594,341.5625 L547.3594,343.0156 Q547.3594,343.625 547.125,343.8906 Q546.8906,344.1563 546.5156,344.1563 Q546.1719,344.1563 545.9688,343.9531 Q545.7656,343.7656 545.6563,343.25 Q545.6094,342.8906 545.4219,342.7031 Q545.0938,342.3281 544.4844,342.1094 Q543.875,341.8906 543.25,341.8906 Q542.4844,341.8906 541.8438,342.2188 Q541.2188,342.5469 540.7188,343.2969 Q540.2344,344.0469 540.2344,345.0781 L540.2344,346.1719 Q540.2344,347.4063 541.125,348.2344 Q542.0156,349.0469 543.6094,349.0469 Q544.5469,349.0469 545.2031,348.7969 Q545.5938,348.6406 546.0156,348.2031 Q546.2813,347.9375 546.4219,347.8594 Q546.5781,347.7813 546.7813,347.7813 Q547.1094,347.7813 547.3594,348.0469 Q547.625,348.2969 547.625,348.6406 Q547.625,348.9844 547.2813,349.3906 Q546.7813,349.9688 545.9844,350.2969 Q544.9063,350.75 543.6094,350.75 Q542.0938,350.75 540.8906,350.125 Q539.9063,349.625 539.2188,348.5625 Q538.5313,347.4844 538.5313,346.2031 L538.5313,345.0469 Q538.5313,343.7188 539.1406,342.5781 Q539.7656,341.4219 540.8594,340.8125 Q541.9531,340.1875 543.1875,340.1875 Q543.9219,340.1875 544.5625,340.3594 Q545.2188,340.5156 545.7656,340.875 Z " fill="#000000"/><text fill="#000000" font-family="sans-serif" font-size="14" lengthAdjust="spacing" textLength="146" x="557" y="350.7285">AutomaticTransmission</text><line style="stroke:#181818;stroke-width:0.5;" x1="529" x2="705" y1="361" y2="361"/><line style="stroke:#181818;stroke-width:0.5;" x1="529" x2="705" y1="369" y2="369"/><ellipse cx="539" cy="383.3047" fill="#84BE84" rx="3" ry="3" style="stroke:#038048;stroke-width:1.0;"/><text fill="#000000" font-family="sans-serif" font-size="14" lengthAdjust="spacing" textLength="89" x="548" y="387.5332">changeGear()</text></g><!--class Vehicle--><g id="elem_Vehicle"><rect codeLine="26" fill="#F1F1F1" height="136.0469" id="Vehicle" rx="2.5" ry="2.5" style="stroke:#181818;stroke-width:0.5;" width="348" x="149" y="7"/><ellipse cx="295.75" cy="23" fill="#ADD1B2" rx="11" ry="11" style="stroke:#181818;stroke-width:1.0;"/><path d="M298.5156,18.875 Q298.6719,18.6563 298.8594,18.5469 Q299.0469,18.4375 299.2656,18.4375 Q299.6406,18.4375 299.875,18.7031 Q300.1094,18.9531 300.1094,19.5625 L300.1094,21.0156 Q300.1094,21.625 299.875,21.8906 Q299.6406,22.1563 299.2656,22.1563 Q298.9219,22.1563 298.7188,21.9531 Q298.5156,21.7656 298.4063,21.25 Q298.3594,20.8906 298.1719,20.7031 Q297.8438,20.3281 297.2344,20.1094 Q296.625,19.8906 296,19.8906 Q295.2344,19.8906 294.5938,20.2188 Q293.9688,20.5469 293.4688,21.2969 Q292.9844,22.0469 292.9844,23.0781 L292.9844,24.1719 Q292.9844,25.4063 293.875,26.2344 Q294.7656,27.0469 296.3594,27.0469 Q297.2969,27.0469 297.9531,26.7969 Q298.3438,26.6406 298.7656,26.2031 Q299.0313,25.9375 299.1719,25.8594 Q299.3281,25.7813 299.5313,25.7813 Q299.8594,25.7813 300.1094,26.0469 Q300.375,26.2969 300.375,26.6406 Q300.375,26.9844 300.0313,27.3906 Q299.5313,27.9688 298.7344,28.2969 Q297.6563,28.75 296.3594,28.75 Q294.8438,28.75 293.6406,28.125 Q292.6563,27.625 291.9688,26.5625 Q291.2813,25.4844 291.2813,24.2031 L291.2813,23.0469 Q291.2813,21.7188 291.8906,20.5781 Q292.5156,19.4219 293.6094,18.8125 Q294.7031,18.1875 295.9375,18.1875 Q296.6719,18.1875 297.3125,18.3594 Q297.9688,18.5156 298.5156,18.875 Z " fill="#000000"/><text fill="#000000" font-family="sans-serif" font-size="14" lengthAdjust="spacing" textLength="46" x="316.25" y="28.7285">Vehicle</text><line style="stroke:#181818;stroke-width:0.5;" x1="150" x2="496" y1="39" y2="39"/><rect fill="none" height="6" style="stroke:#C82930;stroke-width:1.0;" width="6" x="157" y="50.3047"/><text fill="#000000" font-family="sans-serif" font-size="14" lengthAdjust="spacing" textLength="91" x="169" y="57.5332">Engine engine</text><rect fill="none" height="6" style="stroke:#C82930;stroke-width:1.0;" width="6" x="157" y="67.9141"/><text fill="#000000" font-family="sans-serif" font-size="14" lengthAdjust="spacing" textLength="167" x="169" y="75.1426">Transmission transmission</text><line style="stroke:#181818;stroke-width:0.5;" x1="150" x2="496" y1="82.2188" y2="82.2188"/><ellipse cx="160" cy="96.5234" fill="#84BE84" rx="3" ry="3" style="stroke:#038048;stroke-width:1.0;"/><text fill="#000000" font-family="sans-serif" font-size="14" lengthAdjust="spacing" textLength="322" x="169" y="100.752">Vehicle(Engine engine, Transmission transmission)</text><ellipse cx="160" cy="114.1328" fill="#84BE84" rx="3" ry="3" style="stroke:#038048;stroke-width:1.0;"/><text fill="#000000" font-family="sans-serif" font-size="14" lengthAdjust="spacing" textLength="38" x="169" y="118.3613">start()</text><ellipse cx="160" cy="131.7422" fill="#84BE84" rx="3" ry="3" style="stroke:#038048;stroke-width:1.0;"/><text fill="#000000" font-family="sans-serif" font-size="14" lengthAdjust="spacing" textLength="89" x="169" y="135.9707">changeGear()</text></g><!--reverse link Engine to GasolineEngine--><g id="link_Engine_GasolineEngine"><path codeLine="34" d="M182.3145,277.328 C157.7045,296.158 140.06,309.67 114.81,329 " fill="none" id="Engine-backto-GasolineEngine" style="stroke:#181818;stroke-width:1.0;stroke-dasharray:7.0,7.0;"/><polygon fill="none" points="196.61,266.39,178.6685,272.5628,185.9605,282.0931,196.61,266.39" style="stroke:#181818;stroke-width:1.0;"/></g><!--reverse link Engine to ElectricEngine--><g id="link_Engine_ElectricEngine"><path codeLine="35" d="M235,287.26 C235,305.63 235,310.56 235,328.91 " fill="none" id="Engine-backto-ElectricEngine" style="stroke:#181818;stroke-width:1.0;stroke-dasharray:7.0,7.0;"/><polygon fill="none" points="235,269.26,229,287.26,241,287.26,235,269.26" style="stroke:#181818;stroke-width:1.0;"/></g><!--reverse link Transmission to ManualTransmission--><g id="link_Transmission_ManualTransmission"><path codeLine="36" d="M412,287.26 C412,305.63 412,310.56 412,328.91 " fill="none" id="Transmission-backto-ManualTransmission" style="stroke:#181818;stroke-width:1.0;stroke-dasharray:7.0,7.0;"/><polygon fill="none" points="412,269.26,406,287.26,418,287.26,412,269.26" style="stroke:#181818;stroke-width:1.0;"/></g><!--reverse link Transmission to AutomaticTransmission--><g id="link_Transmission_AutomaticTransmission"><path codeLine="37" d="M480.4617,278.4061 C510.8317,296.7761 533.41,310.44 563.81,328.82 " fill="none" id="Transmission-backto-AutomaticTransmission" style="stroke:#181818;stroke-width:1.0;stroke-dasharray:7.0,7.0;"/><polygon fill="none" points="465.06,269.09,477.3563,283.5399,483.567,273.2722,465.06,269.09" style="stroke:#181818;stroke-width:1.0;"/></g><!--reverse link Vehicle to Engine--><g id="link_Vehicle_Engine"><path codeLine="38" d="M279.8687,153.929 C268.4387,174.579 262.2,185.85 252.73,202.97 " fill="none" id="Vehicle-backto-Engine" style="stroke:#181818;stroke-width:1.0;"/><polygon fill="#181818" points="285.68,143.43,279.2747,146.7424,279.8687,153.929,286.274,150.6166,285.68,143.43" style="stroke:#181818;stroke-width:1.0;"/></g><!--reverse link Vehicle to Transmission--><g id="link_Vehicle_Transmission"><path codeLine="39" d="M366.6017,153.9009 C378.1617,174.5509 384.49,185.85 394.07,202.97 " fill="none" id="Vehicle-backto-Transmission" style="stroke:#181818;stroke-width:1.0;"/><polygon fill="#181818" points="360.74,143.43,360.1805,150.6194,366.6017,153.9009,367.1612,146.7116,360.74,143.43" style="stroke:#181818;stroke-width:1.0;"/></g><!--SRC=[ZP8n3eCm34Ntd28Zj8KJTEc0cBfLtQt81KiXI8cPQEzU1A72BQXaYM8_VtzzXHoZVu11NRYA7EfUwU4S0uFd95KlfOo547G9eRK3y0ShB1hsP3On-YoyUN2XeH2eTJDeQd0LbWX-ANe5ru7TprywRXjWClj7xbYJiRFXBDh7yPfAGeiNZqas2YHYygGtfrAPpAgrg7L-vlbN_g8bCrTYvGZyvhS2hOQcvbmEMHP_Y2W9zWq0]--></g></svg>