<?xml version="1.0" encoding="us-ascii" standalone="no"?><svg xmlns="http://www.w3.org/2000/svg" xmlns:xlink="http://www.w3.org/1999/xlink" contentStyleType="text/css" height="346px" preserveAspectRatio="none" style="width:115px;height:346px;background:#FFFFFF;" version="1.1" viewBox="0 0 115 346" width="115px" zoomAndPan="magnify"><defs/><g><!--class Parte--><g id="elem_Parte"><rect codeLine="1" fill="#F1F1F1" height="118.4375" id="Parte" rx="2.5" ry="2.5" style="stroke:#181818;stroke-width:0.5;" width="89" x="13" y="221"/><ellipse cx="38.35" cy="237" fill="#ADD1B2" rx="11" ry="11" style="stroke:#181818;stroke-width:1.0;"/><path d="M41.1156,232.875 Q41.2719,232.6563 41.4594,232.5469 Q41.6469,232.4375 41.8656,232.4375 Q42.2406,232.4375 42.475,232.7031 Q42.7094,232.9531 42.7094,233.5625 L42.7094,235.0156 Q42.7094,235.625 42.475,235.8906 Q42.2406,236.1563 41.8656,236.1563 Q41.5219,236.1563 41.3188,235.9531 Q41.1156,235.7656 41.0063,235.25 Q40.9594,234.8906 40.7719,234.7031 Q40.4438,234.3281 39.8344,234.1094 Q39.225,233.8906 38.6,233.8906 Q37.8344,233.8906 37.1938,234.2188 Q36.5688,234.5469 36.0688,235.2969 Q35.5844,236.0469 35.5844,237.0781 L35.5844,238.1719 Q35.5844,239.4063 36.475,240.2344 Q37.3656,241.0469 38.9594,241.0469 Q39.8969,241.0469 40.5531,240.7969 Q40.9438,240.6406 41.3656,240.2031 Q41.6313,239.9375 41.7719,239.8594 Q41.9281,239.7813 42.1313,239.7813 Q42.4594,239.7813 42.7094,240.0469 Q42.975,240.2969 42.975,240.6406 Q42.975,240.9844 42.6313,241.3906 Q42.1313,241.9688 41.3344,242.2969 Q40.2563,242.75 38.9594,242.75 Q37.4438,242.75 36.2406,242.125 Q35.2563,241.625 34.5688,240.5625 Q33.8813,239.4844 33.8813,238.2031 L33.8813,237.0469 Q33.8813,235.7188 34.4906,234.5781 Q35.1156,233.4219 36.2094,232.8125 Q37.3031,232.1875 38.5375,232.1875 Q39.2719,232.1875 39.9125,232.3594 Q40.5688,232.5156 41.1156,232.875 Z " fill="#000000"/><text fill="#000000" font-family="sans-serif" font-size="14" lengthAdjust="spacing" textLength="34" x="54.65" y="242.7285">Parte</text><line style="stroke:#181818;stroke-width:0.5;" x1="14" x2="101" y1="253" y2="253"/><line style="stroke:#181818;stroke-width:0.5;" x1="14" x2="101" y1="261" y2="261"/><ellipse cx="24" cy="275.3047" fill="#84BE84" rx="3" ry="3" style="stroke:#038048;stroke-width:1.0;"/><text fill="#000000" font-family="sans-serif" font-size="14" lengthAdjust="spacing" textLength="48" x="33" y="279.5332">Parte();</text><ellipse cx="24" cy="292.9141" fill="#84BE84" rx="3" ry="3" style="stroke:#038048;stroke-width:1.0;"/><text fill="#000000" font-family="sans-serif" font-size="14" lengthAdjust="spacing" textLength="63" x="33" y="297.1426">void m1();</text><ellipse cx="24" cy="310.5234" fill="#84BE84" rx="3" ry="3" style="stroke:#038048;stroke-width:1.0;"/><text fill="#000000" font-family="sans-serif" font-size="14" lengthAdjust="spacing" textLength="63" x="33" y="314.752">void m2();</text><ellipse cx="24" cy="328.1328" fill="#84BE84" rx="3" ry="3" style="stroke:#038048;stroke-width:1.0;"/><text fill="#000000" font-family="sans-serif" font-size="14" lengthAdjust="spacing" textLength="63" x="33" y="332.3613">void m3();</text></g><!--class Todo--><g id="elem_Todo"><rect codeLine="10" fill="#F1F1F1" height="153.6563" id="Todo" rx="2.5" ry="2.5" style="stroke:#181818;stroke-width:0.5;" width="101" x="7" y="7"/><ellipse cx="38.2" cy="23" fill="#ADD1B2" rx="11" ry="11" style="stroke:#181818;stroke-width:1.0;"/><path d="M40.9656,18.875 Q41.1219,18.6563 41.3094,18.5469 Q41.4969,18.4375 41.7156,18.4375 Q42.0906,18.4375 42.325,18.7031 Q42.5594,18.9531 42.5594,19.5625 L42.5594,21.0156 Q42.5594,21.625 42.325,21.8906 Q42.0906,22.1563 41.7156,22.1563 Q41.3719,22.1563 41.1688,21.9531 Q40.9656,21.7656 40.8563,21.25 Q40.8094,20.8906 40.6219,20.7031 Q40.2938,20.3281 39.6844,20.1094 Q39.075,19.8906 38.45,19.8906 Q37.6844,19.8906 37.0438,20.2188 Q36.4188,20.5469 35.9188,21.2969 Q35.4344,22.0469 35.4344,23.0781 L35.4344,24.1719 Q35.4344,25.4063 36.325,26.2344 Q37.2156,27.0469 38.8094,27.0469 Q39.7469,27.0469 40.4031,26.7969 Q40.7938,26.6406 41.2156,26.2031 Q41.4813,25.9375 41.6219,25.8594 Q41.7781,25.7813 41.9813,25.7813 Q42.3094,25.7813 42.5594,26.0469 Q42.825,26.2969 42.825,26.6406 Q42.825,26.9844 42.4813,27.3906 Q41.9813,27.9688 41.1844,28.2969 Q40.1063,28.75 38.8094,28.75 Q37.2938,28.75 36.0906,28.125 Q35.1063,27.625 34.4188,26.5625 Q33.7313,25.4844 33.7313,24.2031 L33.7313,23.0469 Q33.7313,21.7188 34.3406,20.5781 Q34.9656,19.4219 36.0594,18.8125 Q37.1531,18.1875 38.3875,18.1875 Q39.1219,18.1875 39.7625,18.3594 Q40.4188,18.5156 40.9656,18.875 Z " fill="#000000"/><text fill="#000000" font-family="sans-serif" font-size="14" lengthAdjust="spacing" textLength="33" x="55.8" y="28.7285">Todo</text><line style="stroke:#181818;stroke-width:0.5;" x1="8" x2="107" y1="39" y2="39"/><rect fill="none" height="6" style="stroke:#C82930;stroke-width:1.0;" width="6" x="15" y="50.3047"/><text fill="#000000" font-family="sans-serif" font-size="14" lengthAdjust="spacing" textLength="75" x="27" y="57.5332">Parte parte;</text><line style="stroke:#181818;stroke-width:0.5;" x1="8" x2="107" y1="64.6094" y2="64.6094"/><ellipse cx="18" cy="78.9141" fill="#84BE84" rx="3" ry="3" style="stroke:#038048;stroke-width:1.0;"/><text fill="#000000" font-family="sans-serif" font-size="14" lengthAdjust="spacing" textLength="43" x="27" y="83.1426">Todo()</text><ellipse cx="18" cy="96.5234" fill="#84BE84" rx="3" ry="3" style="stroke:#038048;stroke-width:1.0;"/><text fill="#000000" font-family="sans-serif" font-size="14" lengthAdjust="spacing" textLength="59" x="27" y="100.752">void m4()</text><ellipse cx="18" cy="114.1328" fill="#84BE84" rx="3" ry="3" style="stroke:#038048;stroke-width:1.0;"/><text fill="#000000" font-family="sans-serif" font-size="14" lengthAdjust="spacing" textLength="59" x="27" y="118.3613">void m5()</text><ellipse cx="18" cy="131.7422" fill="#84BE84" rx="3" ry="3" style="stroke:#038048;stroke-width:1.0;"/><text fill="#000000" font-family="sans-serif" font-size="14" lengthAdjust="spacing" textLength="59" x="27" y="135.9707">void m1()</text><ellipse cx="18" cy="149.3516" fill="#84BE84" rx="3" ry="3" style="stroke:#038048;stroke-width:1.0;"/><text fill="#000000" font-family="sans-serif" font-size="14" lengthAdjust="spacing" textLength="59" x="27" y="153.5801">void m2()</text></g><!--link Todo to Parte--><g id="link_Todo_Parte"><path codeLine="8" d="M57.5,173.12 C57.5,192.97 57.5,196.04 57.5,214.8 " fill="none" id="Todo-Parte" style="stroke:#181818;stroke-width:1.0;"/><polygon fill="#181818" points="57.5,161.12,53.5,167.12,57.5,173.12,61.5,167.12,57.5,161.12" style="stroke:#181818;stroke-width:1.0;"/><polygon fill="#181818" points="57.5,220.8,61.5,211.8,57.5,215.8,53.5,211.8,57.5,220.8" style="stroke:#181818;stroke-width:1.0;"/></g><!--SRC=[Iyv9B2vM24WiAabLKAZcKW02RGXNGzCQoYtBpqnHo3L45p125p062THoSONaf-GhQEccwDf1JEBYIWRR0XQ7Mg8BjRC0HCAC0IdGq4GnqmIDRuh6DqJZ0nt5LGi0]--></g></svg>