<?xml version="1.0" encoding="us-ascii" standalone="no"?><svg xmlns="http://www.w3.org/2000/svg" xmlns:xlink="http://www.w3.org/1999/xlink" contentStyleType="text/css" height="306px" preserveAspectRatio="none" style="width:322px;height:306px;background:#FFFFFF;" version="1.1" viewBox="0 0 322 306" width="322px" zoomAndPan="magnify"><defs/><g><line style="stroke:#181818;stroke-width:0.5;stroke-dasharray:5.0,5.0;" x1="60" x2="60" y1="37.6094" y2="270.0703"/><line style="stroke:#181818;stroke-width:0.5;stroke-dasharray:5.0,5.0;" x1="169" x2="169" y1="37.6094" y2="270.0703"/><line style="stroke:#181818;stroke-width:0.5;stroke-dasharray:5.0,5.0;" x1="269" x2="269" y1="37.6094" y2="270.0703"/><rect fill="#E2E2F0" height="31.6094" rx="2.5" ry="2.5" style="stroke:#181818;stroke-width:0.5;" width="111" x="5" y="5"/><text fill="#000000" font-family="sans-serif" font-size="14" lengthAdjust="spacing" textLength="97" x="12" y="26.5332">cliente : Cliente</text><rect fill="#E2E2F0" height="31.6094" rx="2.5" ry="2.5" style="stroke:#181818;stroke-width:0.5;" width="111" x="5" y="269.0703"/><text fill="#000000" font-family="sans-serif" font-size="14" lengthAdjust="spacing" textLength="97" x="12" y="290.6035">cliente : Cliente</text><rect fill="#E2E2F0" height="31.6094" rx="2.5" ry="2.5" style="stroke:#181818;stroke-width:0.5;" width="87" x="126" y="5"/><text fill="#000000" font-family="sans-serif" font-size="14" lengthAdjust="spacing" textLength="73" x="133" y="26.5332">todo : Todo</text><rect fill="#E2E2F0" height="31.6094" rx="2.5" ry="2.5" style="stroke:#181818;stroke-width:0.5;" width="87" x="126" y="269.0703"/><text fill="#000000" font-family="sans-serif" font-size="14" lengthAdjust="spacing" textLength="73" x="133" y="290.6035">todo : Todo</text><rect fill="#E2E2F0" height="31.6094" rx="2.5" ry="2.5" style="stroke:#181818;stroke-width:0.5;" width="93" x="223" y="5"/><text fill="#000000" font-family="sans-serif" font-size="14" lengthAdjust="spacing" textLength="79" x="230" y="26.5332">parte : Parte</text><rect fill="#E2E2F0" height="31.6094" rx="2.5" ry="2.5" style="stroke:#181818;stroke-width:0.5;" width="93" x="223" y="269.0703"/><text fill="#000000" font-family="sans-serif" font-size="14" lengthAdjust="spacing" textLength="79" x="230" y="290.6035">parte : Parte</text><polygon fill="#181818" points="157.5,65.9609,167.5,69.9609,157.5,73.9609,161.5,69.9609" style="stroke:#181818;stroke-width:1.0;"/><line style="stroke:#181818;stroke-width:1.0;" x1="60.5" x2="163.5" y1="69.9609" y2="69.9609"/><text fill="#000000" font-family="sans-serif" font-size="13" lengthAdjust="spacing" textLength="26" x="67.5" y="65.1045">m4()</text><polygon fill="#181818" points="257.5,96.3125,267.5,100.3125,257.5,104.3125,261.5,100.3125" style="stroke:#181818;stroke-width:1.0;"/><line style="stroke:#181818;stroke-width:1.0;" x1="169.5" x2="263.5" y1="100.3125" y2="100.3125"/><text fill="#000000" font-family="sans-serif" font-size="13" lengthAdjust="spacing" textLength="26" x="176.5" y="95.4561">m1()</text><polygon fill="#181818" points="257.5,126.6641,267.5,130.6641,257.5,134.6641,261.5,130.6641" style="stroke:#181818;stroke-width:1.0;"/><line style="stroke:#181818;stroke-width:1.0;" x1="169.5" x2="263.5" y1="130.6641" y2="130.6641"/><text fill="#000000" font-family="sans-serif" font-size="13" lengthAdjust="spacing" textLength="26" x="176.5" y="125.8076">m3()</text><polygon fill="#181818" points="157.5,157.0156,167.5,161.0156,157.5,165.0156,161.5,161.0156" style="stroke:#181818;stroke-width:1.0;"/><line style="stroke:#181818;stroke-width:1.0;" x1="60.5" x2="163.5" y1="161.0156" y2="161.0156"/><text fill="#000000" font-family="sans-serif" font-size="13" lengthAdjust="spacing" textLength="26" x="67.5" y="156.1592">m5()</text><polygon fill="#181818" points="157.5,187.3672,167.5,191.3672,157.5,195.3672,161.5,191.3672" style="stroke:#181818;stroke-width:1.0;"/><line style="stroke:#181818;stroke-width:1.0;" x1="60.5" x2="163.5" y1="191.3672" y2="191.3672"/><text fill="#000000" font-family="sans-serif" font-size="13" lengthAdjust="spacing" textLength="26" x="67.5" y="186.5107">m1()</text><polygon fill="#181818" points="257.5,217.7188,267.5,221.7188,257.5,225.7188,261.5,221.7188" style="stroke:#181818;stroke-width:1.0;"/><line style="stroke:#181818;stroke-width:1.0;" x1="169.5" x2="263.5" y1="221.7188" y2="221.7188"/><text fill="#000000" font-family="sans-serif" font-size="13" lengthAdjust="spacing" textLength="26" x="176.5" y="216.8623">m1()</text><polygon fill="#181818" points="157.5,248.0703,167.5,252.0703,157.5,256.0703,161.5,252.0703" style="stroke:#181818;stroke-width:1.0;"/><line style="stroke:#181818;stroke-width:1.0;" x1="60.5" x2="163.5" y1="252.0703" y2="252.0703"/><text fill="#000000" font-family="sans-serif" font-size="13" lengthAdjust="spacing" textLength="26" x="67.5" y="247.2139">m2()</text><!--SRC=[AqWiAibCpYn8p2jHK4hEoKpDAqbLi59mXh2K51AB5Q2YN0N8IaloK_A1waA055WHY8-g0iG16HK0ei5gm29SN31RTEqKeARaccXeSe7PG36mAg2O8HOnOw0O5kscs8KnJ809Ob5hfA490000]--></g></svg>