<?xml version="1.0" encoding="us-ascii" standalone="no"?><svg xmlns="http://www.w3.org/2000/svg" xmlns:xlink="http://www.w3.org/1999/xlink" contentStyleType="text/css" height="376px" preserveAspectRatio="none" style="width:330px;height:376px;background:#FFFFFF;" version="1.1" viewBox="0 0 330 376" width="330px" zoomAndPan="magnify"><defs/><g><line style="stroke:#181818;stroke-width:0.5;stroke-dasharray:5.0,5.0;" x1="60" x2="60" y1="37.6094" y2="339.4219"/><line style="stroke:#181818;stroke-width:0.5;stroke-dasharray:5.0,5.0;" x1="225" x2="225" y1="37.6094" y2="339.4219"/><rect fill="#E2E2F0" height="31.6094" rx="2.5" ry="2.5" style="stroke:#181818;stroke-width:0.5;" width="111" x="5" y="5"/><text fill="#000000" font-family="sans-serif" font-size="14" lengthAdjust="spacing" textLength="97" x="12" y="26.5332">cliente : Cliente</text><rect fill="#E2E2F0" height="31.6094" rx="2.5" ry="2.5" style="stroke:#181818;stroke-width:0.5;" width="111" x="5" y="338.4219"/><text fill="#000000" font-family="sans-serif" font-size="14" lengthAdjust="spacing" textLength="97" x="12" y="359.9551">cliente : Cliente</text><rect fill="#E2E2F0" height="31.6094" rx="2.5" ry="2.5" style="stroke:#181818;stroke-width:0.5;" width="198" x="126" y="5"/><text fill="#000000" font-family="sans-serif" font-size="14" lengthAdjust="spacing" textLength="184" x="133" y="26.5332">descendiente : Descendiente</text><rect fill="#E2E2F0" height="31.6094" rx="2.5" ry="2.5" style="stroke:#181818;stroke-width:0.5;" width="198" x="126" y="338.4219"/><text fill="#000000" font-family="sans-serif" font-size="14" lengthAdjust="spacing" textLength="184" x="133" y="359.9551">descendiente : Descendiente</text><polygon fill="#181818" points="213,65.9609,223,69.9609,213,73.9609,217,69.9609" style="stroke:#181818;stroke-width:1.0;"/><line style="stroke:#181818;stroke-width:1.0;" x1="60.5" x2="219" y1="69.9609" y2="69.9609"/><text fill="#000000" font-family="sans-serif" font-size="13" lengthAdjust="spacing" textLength="26" x="67.5" y="65.1045">m4()</text><line style="stroke:#181818;stroke-width:1.0;" x1="225" x2="267" y1="100.3125" y2="100.3125"/><line style="stroke:#181818;stroke-width:1.0;" x1="267" x2="267" y1="100.3125" y2="113.3125"/><line style="stroke:#181818;stroke-width:1.0;" x1="226" x2="267" y1="113.3125" y2="113.3125"/><polygon fill="#181818" points="236,109.3125,226,113.3125,236,117.3125,232,113.3125" style="stroke:#181818;stroke-width:1.0;"/><text fill="#000000" font-family="sans-serif" font-size="13" lengthAdjust="spacing" textLength="26" x="232" y="95.4561">m1()</text><line style="stroke:#181818;stroke-width:1.0;" x1="225" x2="267" y1="143.6641" y2="143.6641"/><line style="stroke:#181818;stroke-width:1.0;" x1="267" x2="267" y1="143.6641" y2="156.6641"/><line style="stroke:#181818;stroke-width:1.0;" x1="226" x2="267" y1="156.6641" y2="156.6641"/><polygon fill="#181818" points="236,152.6641,226,156.6641,236,160.6641,232,156.6641" style="stroke:#181818;stroke-width:1.0;"/><text fill="#000000" font-family="sans-serif" font-size="13" lengthAdjust="spacing" textLength="26" x="232" y="138.8076">m3()</text><polygon fill="#181818" points="213,183.0156,223,187.0156,213,191.0156,217,187.0156" style="stroke:#181818;stroke-width:1.0;"/><line style="stroke:#181818;stroke-width:1.0;" x1="60.5" x2="219" y1="187.0156" y2="187.0156"/><text fill="#000000" font-family="sans-serif" font-size="13" lengthAdjust="spacing" textLength="26" x="67.5" y="182.1592">m5()</text><polygon fill="#181818" points="213,213.3672,223,217.3672,213,221.3672,217,217.3672" style="stroke:#181818;stroke-width:1.0;"/><line style="stroke:#181818;stroke-width:1.0;" x1="60.5" x2="219" y1="217.3672" y2="217.3672"/><text fill="#000000" font-family="sans-serif" font-size="13" lengthAdjust="spacing" textLength="26" x="67.5" y="212.5107">m1()</text><line style="stroke:#181818;stroke-width:1.0;" x1="225" x2="267" y1="247.7188" y2="247.7188"/><line style="stroke:#181818;stroke-width:1.0;" x1="267" x2="267" y1="247.7188" y2="260.7188"/><line style="stroke:#181818;stroke-width:1.0;" x1="226" x2="267" y1="260.7188" y2="260.7188"/><polygon fill="#181818" points="236,256.7188,226,260.7188,236,264.7188,232,260.7188" style="stroke:#181818;stroke-width:1.0;"/><text fill="#000000" font-family="sans-serif" font-size="13" lengthAdjust="spacing" textLength="62" x="232" y="242.8623">super.m1()</text><polygon fill="#181818" points="213,287.0703,223,291.0703,213,295.0703,217,291.0703" style="stroke:#181818;stroke-width:1.0;"/><line style="stroke:#181818;stroke-width:1.0;" x1="60.5" x2="219" y1="291.0703" y2="291.0703"/><text fill="#000000" font-family="sans-serif" font-size="13" lengthAdjust="spacing" textLength="26" x="67.5" y="286.2139">m2()</text><polygon fill="#181818" points="213,317.4219,223,321.4219,213,325.4219,217,321.4219" style="stroke:#181818;stroke-width:1.0;"/><line style="stroke:#181818;stroke-width:1.0;" x1="60.5" x2="219" y1="321.4219" y2="321.4219"/><text fill="#000000" font-family="sans-serif" font-size="13" lengthAdjust="spacing" textLength="26" x="67.5" y="316.5654">m3()</text><!--SRC=[AqWiAibCpYn8p2jHK4hEoKpDAqbLi59mXh2K51AB5Q2YN0N8IbDIYvDJyr9WwbsGk61DoF9SN323TUqKq3JcccXeSg68OL5ZI8GQOw0QFDQOufScmeRYqeBK8ZsmIZm66U6N1heI0000]--></g></svg>