<?xml version="1.0" encoding="us-ascii" standalone="no"?><svg xmlns="http://www.w3.org/2000/svg" xmlns:xlink="http://www.w3.org/1999/xlink" contentStyleType="text/css" height="328px" preserveAspectRatio="none" style="width:137px;height:328px;background:#FFFFFF;" version="1.1" viewBox="0 0 137 328" width="137px" zoomAndPan="magnify"><defs/><g><!--class Base--><g id="elem_Base"><rect codeLine="1" fill="#F1F1F1" height="118.4375" id="Base" rx="2.5" ry="2.5" style="stroke:#181818;stroke-width:0.5;" width="85" x="26" y="7"/><ellipse cx="50.45" cy="23" fill="#ADD1B2" rx="11" ry="11" style="stroke:#181818;stroke-width:1.0;"/><path d="M53.2156,18.875 Q53.3719,18.6563 53.5594,18.5469 Q53.7469,18.4375 53.9656,18.4375 Q54.3406,18.4375 54.575,18.7031 Q54.8094,18.9531 54.8094,19.5625 L54.8094,21.0156 Q54.8094,21.625 54.575,21.8906 Q54.3406,22.1563 53.9656,22.1563 Q53.6219,22.1563 53.4188,21.9531 Q53.2156,21.7656 53.1063,21.25 Q53.0594,20.8906 52.8719,20.7031 Q52.5438,20.3281 51.9344,20.1094 Q51.325,19.8906 50.7,19.8906 Q49.9344,19.8906 49.2938,20.2188 Q48.6688,20.5469 48.1688,21.2969 Q47.6844,22.0469 47.6844,23.0781 L47.6844,24.1719 Q47.6844,25.4063 48.575,26.2344 Q49.4656,27.0469 51.0594,27.0469 Q51.9969,27.0469 52.6531,26.7969 Q53.0438,26.6406 53.4656,26.2031 Q53.7313,25.9375 53.8719,25.8594 Q54.0281,25.7813 54.2313,25.7813 Q54.5594,25.7813 54.8094,26.0469 Q55.075,26.2969 55.075,26.6406 Q55.075,26.9844 54.7313,27.3906 Q54.2313,27.9688 53.4344,28.2969 Q52.3563,28.75 51.0594,28.75 Q49.5438,28.75 48.3406,28.125 Q47.3563,27.625 46.6688,26.5625 Q45.9813,25.4844 45.9813,24.2031 L45.9813,23.0469 Q45.9813,21.7188 46.5906,20.5781 Q47.2156,19.4219 48.3094,18.8125 Q49.4031,18.1875 50.6375,18.1875 Q51.3719,18.1875 52.0125,18.3594 Q52.6688,18.5156 53.2156,18.875 Z " fill="#000000"/><text fill="#000000" font-family="sans-serif" font-size="14" lengthAdjust="spacing" textLength="32" x="66.55" y="28.7285">Base</text><line style="stroke:#181818;stroke-width:0.5;" x1="27" x2="110" y1="39" y2="39"/><line style="stroke:#181818;stroke-width:0.5;" x1="27" x2="110" y1="47" y2="47"/><ellipse cx="37" cy="61.3047" fill="#84BE84" rx="3" ry="3" style="stroke:#038048;stroke-width:1.0;"/><text fill="#000000" font-family="sans-serif" font-size="14" lengthAdjust="spacing" textLength="42" x="46" y="65.5332">Base()</text><ellipse cx="37" cy="78.9141" fill="#84BE84" rx="3" ry="3" style="stroke:#038048;stroke-width:1.0;"/><text fill="#000000" font-family="sans-serif" font-size="14" lengthAdjust="spacing" textLength="59" x="46" y="83.1426">void m1()</text><ellipse cx="37" cy="96.5234" fill="#84BE84" rx="3" ry="3" style="stroke:#038048;stroke-width:1.0;"/><text fill="#000000" font-family="sans-serif" font-size="14" lengthAdjust="spacing" textLength="59" x="46" y="100.752">void m2()</text><ellipse cx="37" cy="114.1328" fill="#84BE84" rx="3" ry="3" style="stroke:#038048;stroke-width:1.0;"/><text fill="#000000" font-family="sans-serif" font-size="14" lengthAdjust="spacing" textLength="59" x="46" y="118.3613">void m3()</text></g><!--class Descendiente--><g id="elem_Descendiente"><rect codeLine="10" fill="#F1F1F1" height="136.0469" id="Descendiente" rx="2.5" ry="2.5" style="stroke:#181818;stroke-width:0.5;" width="123" x="7" y="185"/><ellipse cx="23.8" cy="201" fill="#ADD1B2" rx="11" ry="11" style="stroke:#181818;stroke-width:1.0;"/><path d="M26.5656,196.875 Q26.7219,196.6563 26.9094,196.5469 Q27.0969,196.4375 27.3156,196.4375 Q27.6906,196.4375 27.925,196.7031 Q28.1594,196.9531 28.1594,197.5625 L28.1594,199.0156 Q28.1594,199.625 27.925,199.8906 Q27.6906,200.1563 27.3156,200.1563 Q26.9719,200.1563 26.7688,199.9531 Q26.5656,199.7656 26.4563,199.25 Q26.4094,198.8906 26.2219,198.7031 Q25.8938,198.3281 25.2844,198.1094 Q24.675,197.8906 24.05,197.8906 Q23.2844,197.8906 22.6438,198.2188 Q22.0188,198.5469 21.5188,199.2969 Q21.0344,200.0469 21.0344,201.0781 L21.0344,202.1719 Q21.0344,203.4063 21.925,204.2344 Q22.8156,205.0469 24.4094,205.0469 Q25.3469,205.0469 26.0031,204.7969 Q26.3938,204.6406 26.8156,204.2031 Q27.0813,203.9375 27.2219,203.8594 Q27.3781,203.7813 27.5813,203.7813 Q27.9094,203.7813 28.1594,204.0469 Q28.425,204.2969 28.425,204.6406 Q28.425,204.9844 28.0813,205.3906 Q27.5813,205.9688 26.7844,206.2969 Q25.7063,206.75 24.4094,206.75 Q22.8938,206.75 21.6906,206.125 Q20.7063,205.625 20.0188,204.5625 Q19.3313,203.4844 19.3313,202.2031 L19.3313,201.0469 Q19.3313,199.7188 19.9406,198.5781 Q20.5656,197.4219 21.6594,196.8125 Q22.7531,196.1875 23.9875,196.1875 Q24.7219,196.1875 25.3625,196.3594 Q26.0188,196.5156 26.5656,196.875 Z " fill="#000000"/><text fill="#000000" font-family="sans-serif" font-size="14" lengthAdjust="spacing" textLength="87" x="38.2" y="206.7285">Descendiente</text><line style="stroke:#181818;stroke-width:0.5;" x1="8" x2="129" y1="217" y2="217"/><line style="stroke:#181818;stroke-width:0.5;" x1="8" x2="129" y1="225" y2="225"/><ellipse cx="18" cy="239.3047" fill="#84BE84" rx="3" ry="3" style="stroke:#038048;stroke-width:1.0;"/><text fill="#000000" font-family="sans-serif" font-size="14" lengthAdjust="spacing" textLength="97" x="27" y="243.5332">Descendiente()</text><ellipse cx="18" cy="256.9141" fill="#84BE84" rx="3" ry="3" style="stroke:#038048;stroke-width:1.0;"/><text fill="#000000" font-family="sans-serif" font-size="14" lengthAdjust="spacing" textLength="59" x="27" y="261.1426">void m4()</text><ellipse cx="18" cy="274.5234" fill="#84BE84" rx="3" ry="3" style="stroke:#038048;stroke-width:1.0;"/><text fill="#000000" font-family="sans-serif" font-size="14" lengthAdjust="spacing" textLength="59" x="27" y="278.752">void m5()</text><ellipse cx="18" cy="292.1328" fill="#84BE84" rx="3" ry="3" style="stroke:#038048;stroke-width:1.0;"/><text fill="#000000" font-family="sans-serif" font-size="14" lengthAdjust="spacing" textLength="59" x="27" y="296.3613">void m1()</text><ellipse cx="18" cy="309.7422" fill="#84BE84" rx="3" ry="3" style="stroke:#038048;stroke-width:1.0;"/><text fill="#000000" font-family="sans-serif" font-size="14" lengthAdjust="spacing" textLength="59" x="27" y="313.9707">void m2()</text></g><!--reverse link Base to Descendiente--><g id="link_Base_Descendiente"><path codeLine="8" d="M68.5,143.03 C68.5,162 68.5,165.22 68.5,184.81 " fill="none" id="Base-backto-Descendiente" style="stroke:#181818;stroke-width:1.0;"/><polygon fill="none" points="68.5,125.03,62.5,143.03,74.5,143.03,68.5,125.03" style="stroke:#181818;stroke-width:1.0;"/></g><!--SRC=[Iyv9B2vMS4eiJbLGgEPI009jC4z34yefoyzCKSWrHECReV6DWVnQBYwmEJOrkYdvvNcw2YwfnScfUIcPgNabgLnSoM2RaCNW5Y8BeXbiWiOt9S9XjG00]--></g></svg>