<?xml version="1.0" encoding="us-ascii" standalone="no"?><svg xmlns="http://www.w3.org/2000/svg" xmlns:xlink="http://www.w3.org/1999/xlink" contentStyleType="text/css" height="293px" preserveAspectRatio="none" style="width:498px;height:293px;background:#FFFFFF;" version="1.1" viewBox="0 0 498 293" width="498px" zoomAndPan="magnify"><defs/><g><!--class Shape--><g id="elem_Shape"><rect codeLine="2" fill="#F1F1F1" height="83.2188" id="Shape" rx="2.5" ry="2.5" style="stroke:#181818;stroke-width:0.5;" width="168" x="193.5" y="7"/><ellipse cx="252.75" cy="23" fill="#ADD1B2" rx="11" ry="11" style="stroke:#181818;stroke-width:1.0;"/><path d="M255.5156,18.875 Q255.6719,18.6563 255.8594,18.5469 Q256.0469,18.4375 256.2656,18.4375 Q256.6406,18.4375 256.875,18.7031 Q257.1094,18.9531 257.1094,19.5625 L257.1094,21.0156 Q257.1094,21.625 256.875,21.8906 Q256.6406,22.1563 256.2656,22.1563 Q255.9219,22.1563 255.7188,21.9531 Q255.5156,21.7656 255.4063,21.25 Q255.3594,20.8906 255.1719,20.7031 Q254.8438,20.3281 254.2344,20.1094 Q253.625,19.8906 253,19.8906 Q252.2344,19.8906 251.5938,20.2188 Q250.9688,20.5469 250.4688,21.2969 Q249.9844,22.0469 249.9844,23.0781 L249.9844,24.1719 Q249.9844,25.4063 250.875,26.2344 Q251.7656,27.0469 253.3594,27.0469 Q254.2969,27.0469 254.9531,26.7969 Q255.3438,26.6406 255.7656,26.2031 Q256.0313,25.9375 256.1719,25.8594 Q256.3281,25.7813 256.5313,25.7813 Q256.8594,25.7813 257.1094,26.0469 Q257.375,26.2969 257.375,26.6406 Q257.375,26.9844 257.0313,27.3906 Q256.5313,27.9688 255.7344,28.2969 Q254.6563,28.75 253.3594,28.75 Q251.8438,28.75 250.6406,28.125 Q249.6563,27.625 248.9688,26.5625 Q248.2813,25.4844 248.2813,24.2031 L248.2813,23.0469 Q248.2813,21.7188 248.8906,20.5781 Q249.5156,19.4219 250.6094,18.8125 Q251.7031,18.1875 252.9375,18.1875 Q253.6719,18.1875 254.3125,18.3594 Q254.9688,18.5156 255.5156,18.875 Z " fill="#000000"/><text fill="#000000" font-family="sans-serif" font-size="14" lengthAdjust="spacing" textLength="41" x="273.25" y="28.7285">Shape</text><line style="stroke:#181818;stroke-width:0.5;" x1="194.5" x2="360.5" y1="39" y2="39"/><line style="stroke:#181818;stroke-width:0.5;" x1="194.5" x2="360.5" y1="47" y2="47"/><ellipse cx="204.5" cy="61.3047" fill="#84BE84" rx="3" ry="3" style="stroke:#038048;stroke-width:1.0;"/><text fill="#000000" font-family="sans-serif" font-size="14" lengthAdjust="spacing" textLength="111" x="213.5" y="65.5332">getArea(): double</text><ellipse cx="204.5" cy="78.9141" fill="#84BE84" rx="3" ry="3" style="stroke:#038048;stroke-width:1.0;"/><text fill="#000000" font-family="sans-serif" font-size="14" lengthAdjust="spacing" textLength="142" x="213.5" y="83.1426">getPerimeter(): double</text></g><!--class Rectangle--><g id="elem_Rectangle"><rect codeLine="7" fill="#F1F1F1" height="136.0469" id="Rectangle" rx="2.5" ry="2.5" style="stroke:#181818;stroke-width:0.5;" width="281" x="7" y="150"/><ellipse cx="111.25" cy="166" fill="#ADD1B2" rx="11" ry="11" style="stroke:#181818;stroke-width:1.0;"/><path d="M114.0156,161.875 Q114.1719,161.6563 114.3594,161.5469 Q114.5469,161.4375 114.7656,161.4375 Q115.1406,161.4375 115.375,161.7031 Q115.6094,161.9531 115.6094,162.5625 L115.6094,164.0156 Q115.6094,164.625 115.375,164.8906 Q115.1406,165.1563 114.7656,165.1563 Q114.4219,165.1563 114.2188,164.9531 Q114.0156,164.7656 113.9063,164.25 Q113.8594,163.8906 113.6719,163.7031 Q113.3438,163.3281 112.7344,163.1094 Q112.125,162.8906 111.5,162.8906 Q110.7344,162.8906 110.0938,163.2188 Q109.4688,163.5469 108.9688,164.2969 Q108.4844,165.0469 108.4844,166.0781 L108.4844,167.1719 Q108.4844,168.4063 109.375,169.2344 Q110.2656,170.0469 111.8594,170.0469 Q112.7969,170.0469 113.4531,169.7969 Q113.8438,169.6406 114.2656,169.2031 Q114.5313,168.9375 114.6719,168.8594 Q114.8281,168.7813 115.0313,168.7813 Q115.3594,168.7813 115.6094,169.0469 Q115.875,169.2969 115.875,169.6406 Q115.875,169.9844 115.5313,170.3906 Q115.0313,170.9688 114.2344,171.2969 Q113.1563,171.75 111.8594,171.75 Q110.3438,171.75 109.1406,171.125 Q108.1563,170.625 107.4688,169.5625 Q106.7813,168.4844 106.7813,167.2031 L106.7813,166.0469 Q106.7813,164.7188 107.3906,163.5781 Q108.0156,162.4219 109.1094,161.8125 Q110.2031,161.1875 111.4375,161.1875 Q112.1719,161.1875 112.8125,161.3594 Q113.4688,161.5156 114.0156,161.875 Z " fill="#000000"/><text fill="#000000" font-family="sans-serif" font-size="14" lengthAdjust="spacing" textLength="64" x="131.75" y="171.7285">Rectangle</text><line style="stroke:#181818;stroke-width:0.5;" x1="8" x2="287" y1="182" y2="182"/><rect fill="none" height="6" style="stroke:#C82930;stroke-width:1.0;" width="6" x="15" y="193.3047"/><text fill="#000000" font-family="sans-serif" font-size="14" lengthAdjust="spacing" textLength="83" x="27" y="200.5332">width: double</text><rect fill="none" height="6" style="stroke:#C82930;stroke-width:1.0;" width="6" x="15" y="210.9141"/><text fill="#000000" font-family="sans-serif" font-size="14" lengthAdjust="spacing" textLength="90" x="27" y="218.1426">height: double</text><line style="stroke:#181818;stroke-width:0.5;" x1="8" x2="287" y1="225.2188" y2="225.2188"/><ellipse cx="18" cy="239.5234" fill="#84BE84" rx="3" ry="3" style="stroke:#038048;stroke-width:1.0;"/><text fill="#000000" font-family="sans-serif" font-size="14" lengthAdjust="spacing" textLength="255" x="27" y="243.752">Rectangle(width: double, height: double)</text><ellipse cx="18" cy="257.1328" fill="#84BE84" rx="3" ry="3" style="stroke:#038048;stroke-width:1.0;"/><text fill="#000000" font-family="sans-serif" font-size="14" lengthAdjust="spacing" textLength="111" x="27" y="261.3613">getArea(): double</text><ellipse cx="18" cy="274.7422" fill="#84BE84" rx="3" ry="3" style="stroke:#038048;stroke-width:1.0;"/><text fill="#000000" font-family="sans-serif" font-size="14" lengthAdjust="spacing" textLength="142" x="27" y="278.9707">getPerimeter(): double</text></g><!--class Circle--><g id="elem_Circle"><rect codeLine="15" fill="#F1F1F1" height="118.4375" id="Circle" rx="2.5" ry="2.5" style="stroke:#181818;stroke-width:0.5;" width="168" x="323.5" y="159"/><ellipse cx="385.25" cy="175" fill="#ADD1B2" rx="11" ry="11" style="stroke:#181818;stroke-width:1.0;"/><path d="M388.0156,170.875 Q388.1719,170.6563 388.3594,170.5469 Q388.5469,170.4375 388.7656,170.4375 Q389.1406,170.4375 389.375,170.7031 Q389.6094,170.9531 389.6094,171.5625 L389.6094,173.0156 Q389.6094,173.625 389.375,173.8906 Q389.1406,174.1563 388.7656,174.1563 Q388.4219,174.1563 388.2188,173.9531 Q388.0156,173.7656 387.9063,173.25 Q387.8594,172.8906 387.6719,172.7031 Q387.3438,172.3281 386.7344,172.1094 Q386.125,171.8906 385.5,171.8906 Q384.7344,171.8906 384.0938,172.2188 Q383.4688,172.5469 382.9688,173.2969 Q382.4844,174.0469 382.4844,175.0781 L382.4844,176.1719 Q382.4844,177.4063 383.375,178.2344 Q384.2656,179.0469 385.8594,179.0469 Q386.7969,179.0469 387.4531,178.7969 Q387.8438,178.6406 388.2656,178.2031 Q388.5313,177.9375 388.6719,177.8594 Q388.8281,177.7813 389.0313,177.7813 Q389.3594,177.7813 389.6094,178.0469 Q389.875,178.2969 389.875,178.6406 Q389.875,178.9844 389.5313,179.3906 Q389.0313,179.9688 388.2344,180.2969 Q387.1563,180.75 385.8594,180.75 Q384.3438,180.75 383.1406,180.125 Q382.1563,179.625 381.4688,178.5625 Q380.7813,177.4844 380.7813,176.2031 L380.7813,175.0469 Q380.7813,173.7188 381.3906,172.5781 Q382.0156,171.4219 383.1094,170.8125 Q384.2031,170.1875 385.4375,170.1875 Q386.1719,170.1875 386.8125,170.3594 Q387.4688,170.5156 388.0156,170.875 Z " fill="#000000"/><text fill="#000000" font-family="sans-serif" font-size="14" lengthAdjust="spacing" textLength="36" x="405.75" y="180.7285">Circle</text><line style="stroke:#181818;stroke-width:0.5;" x1="324.5" x2="490.5" y1="191" y2="191"/><rect fill="none" height="6" style="stroke:#C82930;stroke-width:1.0;" width="6" x="331.5" y="202.3047"/><text fill="#000000" font-family="sans-serif" font-size="14" lengthAdjust="spacing" textLength="90" x="343.5" y="209.5332">radius: double</text><line style="stroke:#181818;stroke-width:0.5;" x1="324.5" x2="490.5" y1="216.6094" y2="216.6094"/><ellipse cx="334.5" cy="230.9141" fill="#84BE84" rx="3" ry="3" style="stroke:#038048;stroke-width:1.0;"/><text fill="#000000" font-family="sans-serif" font-size="14" lengthAdjust="spacing" textLength="136" x="343.5" y="235.1426">Circle(radius: double)</text><ellipse cx="334.5" cy="248.5234" fill="#84BE84" rx="3" ry="3" style="stroke:#038048;stroke-width:1.0;"/><text fill="#000000" font-family="sans-serif" font-size="14" lengthAdjust="spacing" textLength="111" x="343.5" y="252.752">getArea(): double</text><ellipse cx="334.5" cy="266.1328" fill="#84BE84" rx="3" ry="3" style="stroke:#038048;stroke-width:1.0;"/><text fill="#000000" font-family="sans-serif" font-size="14" lengthAdjust="spacing" textLength="142" x="343.5" y="270.3613">getPerimeter(): double</text></g><!--reverse link Shape to Rectangle--><g id="link_Shape_Rectangle"><path d="M234.9939,104.2699 C221.0939,122.1799 215.41,129.5 199.72,149.71 " fill="none" id="Shape-backto-Rectangle" style="stroke:#181818;stroke-width:1.0;"/><polygon fill="none" points="246.03,90.05,230.254,100.5912,239.7339,107.9486,246.03,90.05" style="stroke:#181818;stroke-width:1.0;"/></g><!--reverse link Shape to Circle--><g id="link_Shape_Circle"><path d="M320.009,104.2676 C336.019,124.8876 344.72,136.11 362.31,158.78 " fill="none" id="Shape-backto-Circle" style="stroke:#181818;stroke-width:1.0;"/><polygon fill="none" points="308.97,90.05,315.2698,107.9473,324.7482,100.588,308.97,90.05" style="stroke:#181818;stroke-width:1.0;"/></g><!--SRC=[Iyv9B2vM2Cv8B4XLgEPI00BjzDGInwBKH0rDAuMK_DAad5IuS41gKMPkQabg4P9SBHTNCjYCeDJaaiIyz9nKXTIAajIy55HJTSipKqeoK4pKpKZDJCyeGRK5Ree6YWOT1LJ5cXGvrJcpA1cNEuiIKp9BYr7DWwZNG9KYrma0]--></g></svg>