<?xml version="1.0" encoding="us-ascii" standalone="no"?><svg xmlns="http://www.w3.org/2000/svg" xmlns:xlink="http://www.w3.org/1999/xlink" contentStyleType="text/css" height="240px" preserveAspectRatio="none" style="width:851px;height:240px;background:#FFFFFF;" version="1.1" viewBox="0 0 851 240" width="851px" zoomAndPan="magnify"><defs/><g><!--class Vehicle--><g id="elem_Vehicle"><rect codeLine="2" fill="#F1F1F1" height="83.2188" id="Vehicle" rx="2.5" ry="2.5" style="stroke:#181818;stroke-width:0.5;" width="149" x="354.5" y="7"/><ellipse cx="401.75" cy="23" fill="#A9DCDF" rx="11" ry="11" style="stroke:#181818;stroke-width:1.0;"/><path d="M403.9375,24.7656 L399.7969,24.7656 L399.375,25.7969 L399.7969,25.7969 Q400.4063,25.7969 400.6719,26.0313 Q400.9375,26.2656 400.9375,26.6563 Q400.9375,27.0313 400.6719,27.2656 Q400.4063,27.5 399.7969,27.5 L397.5,27.5 Q396.8906,27.5 396.6406,27.2656 Q396.375,27.0313 396.375,26.6406 Q396.375,26.2656 396.6563,26.0313 Q396.9219,25.7813 397.5469,25.7969 L400.2188,19.1406 L399.1094,19.1406 Q398.5,19.1406 398.2344,18.9063 Q397.9688,18.6719 397.9688,18.2813 Q397.9688,17.9063 398.2344,17.6719 Q398.5,17.4375 399.1094,17.4375 L402.7813,17.4375 L406.1719,25.7969 Q406.7656,25.7969 406.9531,25.9375 Q407.3438,26.2031 407.3438,26.6563 Q407.3438,27.0313 407.0781,27.2656 Q406.8281,27.5 406.2188,27.5 L403.9219,27.5 Q403.3125,27.5 403.0469,27.2656 Q402.7813,27.0313 402.7813,26.6406 Q402.7813,26.2656 403.0469,26.0313 Q403.3125,25.7969 403.9219,25.7969 L404.3438,25.7969 L403.9375,24.7656 Z M403.2188,23.0625 L401.8594,19.6875 L400.4844,23.0625 L403.2188,23.0625 Z " fill="#000000"/><text fill="#000000" font-family="sans-serif" font-size="14" font-style="italic" lengthAdjust="spacing" textLength="46" x="422.25" y="28.7285">Vehicle</text><line style="stroke:#181818;stroke-width:0.5;" x1="355.5" x2="502.5" y1="39" y2="39"/><line style="stroke:#181818;stroke-width:0.5;" x1="355.5" x2="502.5" y1="47" y2="47"/><ellipse cx="365.5" cy="61.3047" fill="#84BE84" rx="3" ry="3" style="stroke:#038048;stroke-width:1.0;"/><text fill="#000000" font-family="sans-serif" font-size="14" lengthAdjust="spacing" textLength="72" x="374.5" y="65.5332">start(): void</text><ellipse cx="365.5" cy="78.9141" fill="#84BE84" rx="3" ry="3" style="stroke:#038048;stroke-width:1.0;"/><text fill="#000000" font-family="sans-serif" font-size="14" lengthAdjust="spacing" textLength="123" x="374.5" y="83.1426">changeGear(): void</text></g><!--class GasolineManualVehicle--><g id="elem_GasolineManualVehicle"><rect codeLine="7" fill="#F1F1F1" height="83.2188" id="GasolineManualVehicle" rx="2.5" ry="2.5" style="stroke:#181818;stroke-width:0.5;" width="180" x="7" y="150"/><ellipse cx="22" cy="166" fill="#ADD1B2" rx="11" ry="11" style="stroke:#181818;stroke-width:1.0;"/><path d="M24.7656,161.875 Q24.9219,161.6563 25.1094,161.5469 Q25.2969,161.4375 25.5156,161.4375 Q25.8906,161.4375 26.125,161.7031 Q26.3594,161.9531 26.3594,162.5625 L26.3594,164.0156 Q26.3594,164.625 26.125,164.8906 Q25.8906,165.1563 25.5156,165.1563 Q25.1719,165.1563 24.9688,164.9531 Q24.7656,164.7656 24.6563,164.25 Q24.6094,163.8906 24.4219,163.7031 Q24.0938,163.3281 23.4844,163.1094 Q22.875,162.8906 22.25,162.8906 Q21.4844,162.8906 20.8438,163.2188 Q20.2188,163.5469 19.7188,164.2969 Q19.2344,165.0469 19.2344,166.0781 L19.2344,167.1719 Q19.2344,168.4063 20.125,169.2344 Q21.0156,170.0469 22.6094,170.0469 Q23.5469,170.0469 24.2031,169.7969 Q24.5938,169.6406 25.0156,169.2031 Q25.2813,168.9375 25.4219,168.8594 Q25.5781,168.7813 25.7813,168.7813 Q26.1094,168.7813 26.3594,169.0469 Q26.625,169.2969 26.625,169.6406 Q26.625,169.9844 26.2813,170.3906 Q25.7813,170.9688 24.9844,171.2969 Q23.9063,171.75 22.6094,171.75 Q21.0938,171.75 19.8906,171.125 Q18.9063,170.625 18.2188,169.5625 Q17.5313,168.4844 17.5313,167.2031 L17.5313,166.0469 Q17.5313,164.7188 18.1406,163.5781 Q18.7656,162.4219 19.8594,161.8125 Q20.9531,161.1875 22.1875,161.1875 Q22.9219,161.1875 23.5625,161.3594 Q24.2188,161.5156 24.7656,161.875 Z " fill="#000000"/><text fill="#000000" font-family="sans-serif" font-size="14" lengthAdjust="spacing" textLength="148" x="36" y="171.7285">GasolineManualVehicle</text><line style="stroke:#181818;stroke-width:0.5;" x1="8" x2="186" y1="182" y2="182"/><line style="stroke:#181818;stroke-width:0.5;" x1="8" x2="186" y1="190" y2="190"/><ellipse cx="18" cy="204.3047" fill="#84BE84" rx="3" ry="3" style="stroke:#038048;stroke-width:1.0;"/><text fill="#000000" font-family="sans-serif" font-size="14" lengthAdjust="spacing" textLength="72" x="27" y="208.5332">start(): void</text><ellipse cx="18" cy="221.9141" fill="#84BE84" rx="3" ry="3" style="stroke:#038048;stroke-width:1.0;"/><text fill="#000000" font-family="sans-serif" font-size="14" lengthAdjust="spacing" textLength="123" x="27" y="226.1426">changeGear(): void</text></g><!--class GasolineAutomaticVehicle--><g id="elem_GasolineAutomaticVehicle"><rect codeLine="12" fill="#F1F1F1" height="83.2188" id="GasolineAutomaticVehicle" rx="2.5" ry="2.5" style="stroke:#181818;stroke-width:0.5;" width="196" x="222" y="150"/><ellipse cx="237" cy="166" fill="#ADD1B2" rx="11" ry="11" style="stroke:#181818;stroke-width:1.0;"/><path d="M239.7656,161.875 Q239.9219,161.6563 240.1094,161.5469 Q240.2969,161.4375 240.5156,161.4375 Q240.8906,161.4375 241.125,161.7031 Q241.3594,161.9531 241.3594,162.5625 L241.3594,164.0156 Q241.3594,164.625 241.125,164.8906 Q240.8906,165.1563 240.5156,165.1563 Q240.1719,165.1563 239.9688,164.9531 Q239.7656,164.7656 239.6563,164.25 Q239.6094,163.8906 239.4219,163.7031 Q239.0938,163.3281 238.4844,163.1094 Q237.875,162.8906 237.25,162.8906 Q236.4844,162.8906 235.8438,163.2188 Q235.2188,163.5469 234.7188,164.2969 Q234.2344,165.0469 234.2344,166.0781 L234.2344,167.1719 Q234.2344,168.4063 235.125,169.2344 Q236.0156,170.0469 237.6094,170.0469 Q238.5469,170.0469 239.2031,169.7969 Q239.5938,169.6406 240.0156,169.2031 Q240.2813,168.9375 240.4219,168.8594 Q240.5781,168.7813 240.7813,168.7813 Q241.1094,168.7813 241.3594,169.0469 Q241.625,169.2969 241.625,169.6406 Q241.625,169.9844 241.2813,170.3906 Q240.7813,170.9688 239.9844,171.2969 Q238.9063,171.75 237.6094,171.75 Q236.0938,171.75 234.8906,171.125 Q233.9063,170.625 233.2188,169.5625 Q232.5313,168.4844 232.5313,167.2031 L232.5313,166.0469 Q232.5313,164.7188 233.1406,163.5781 Q233.7656,162.4219 234.8594,161.8125 Q235.9531,161.1875 237.1875,161.1875 Q237.9219,161.1875 238.5625,161.3594 Q239.2188,161.5156 239.7656,161.875 Z " fill="#000000"/><text fill="#000000" font-family="sans-serif" font-size="14" lengthAdjust="spacing" textLength="164" x="251" y="171.7285">GasolineAutomaticVehicle</text><line style="stroke:#181818;stroke-width:0.5;" x1="223" x2="417" y1="182" y2="182"/><line style="stroke:#181818;stroke-width:0.5;" x1="223" x2="417" y1="190" y2="190"/><ellipse cx="233" cy="204.3047" fill="#84BE84" rx="3" ry="3" style="stroke:#038048;stroke-width:1.0;"/><text fill="#000000" font-family="sans-serif" font-size="14" lengthAdjust="spacing" textLength="72" x="242" y="208.5332">start(): void</text><ellipse cx="233" cy="221.9141" fill="#84BE84" rx="3" ry="3" style="stroke:#038048;stroke-width:1.0;"/><text fill="#000000" font-family="sans-serif" font-size="14" lengthAdjust="spacing" textLength="123" x="242" y="226.1426">changeGear(): void</text></g><!--class ElectricManualVehicle--><g id="elem_ElectricManualVehicle"><rect codeLine="17" fill="#F1F1F1" height="83.2188" id="ElectricManualVehicle" rx="2.5" ry="2.5" style="stroke:#181818;stroke-width:0.5;" width="170" x="453" y="150"/><ellipse cx="468" cy="166" fill="#ADD1B2" rx="11" ry="11" style="stroke:#181818;stroke-width:1.0;"/><path d="M470.7656,161.875 Q470.9219,161.6563 471.1094,161.5469 Q471.2969,161.4375 471.5156,161.4375 Q471.8906,161.4375 472.125,161.7031 Q472.3594,161.9531 472.3594,162.5625 L472.3594,164.0156 Q472.3594,164.625 472.125,164.8906 Q471.8906,165.1563 471.5156,165.1563 Q471.1719,165.1563 470.9688,164.9531 Q470.7656,164.7656 470.6563,164.25 Q470.6094,163.8906 470.4219,163.7031 Q470.0938,163.3281 469.4844,163.1094 Q468.875,162.8906 468.25,162.8906 Q467.4844,162.8906 466.8438,163.2188 Q466.2188,163.5469 465.7188,164.2969 Q465.2344,165.0469 465.2344,166.0781 L465.2344,167.1719 Q465.2344,168.4063 466.125,169.2344 Q467.0156,170.0469 468.6094,170.0469 Q469.5469,170.0469 470.2031,169.7969 Q470.5938,169.6406 471.0156,169.2031 Q471.2813,168.9375 471.4219,168.8594 Q471.5781,168.7813 471.7813,168.7813 Q472.1094,168.7813 472.3594,169.0469 Q472.625,169.2969 472.625,169.6406 Q472.625,169.9844 472.2813,170.3906 Q471.7813,170.9688 470.9844,171.2969 Q469.9063,171.75 468.6094,171.75 Q467.0938,171.75 465.8906,171.125 Q464.9063,170.625 464.2188,169.5625 Q463.5313,168.4844 463.5313,167.2031 L463.5313,166.0469 Q463.5313,164.7188 464.1406,163.5781 Q464.7656,162.4219 465.8594,161.8125 Q466.9531,161.1875 468.1875,161.1875 Q468.9219,161.1875 469.5625,161.3594 Q470.2188,161.5156 470.7656,161.875 Z " fill="#000000"/><text fill="#000000" font-family="sans-serif" font-size="14" lengthAdjust="spacing" textLength="138" x="482" y="171.7285">ElectricManualVehicle</text><line style="stroke:#181818;stroke-width:0.5;" x1="454" x2="622" y1="182" y2="182"/><line style="stroke:#181818;stroke-width:0.5;" x1="454" x2="622" y1="190" y2="190"/><ellipse cx="464" cy="204.3047" fill="#84BE84" rx="3" ry="3" style="stroke:#038048;stroke-width:1.0;"/><text fill="#000000" font-family="sans-serif" font-size="14" lengthAdjust="spacing" textLength="72" x="473" y="208.5332">start(): void</text><ellipse cx="464" cy="221.9141" fill="#84BE84" rx="3" ry="3" style="stroke:#038048;stroke-width:1.0;"/><text fill="#000000" font-family="sans-serif" font-size="14" lengthAdjust="spacing" textLength="123" x="473" y="226.1426">changeGear(): void</text></g><!--class ElectricAutomaticVehicle--><g id="elem_ElectricAutomaticVehicle"><rect codeLine="22" fill="#F1F1F1" height="83.2188" id="ElectricAutomaticVehicle" rx="2.5" ry="2.5" style="stroke:#181818;stroke-width:0.5;" width="186" x="658" y="150"/><ellipse cx="673" cy="166" fill="#ADD1B2" rx="11" ry="11" style="stroke:#181818;stroke-width:1.0;"/><path d="M675.7656,161.875 Q675.9219,161.6563 676.1094,161.5469 Q676.2969,161.4375 676.5156,161.4375 Q676.8906,161.4375 677.125,161.7031 Q677.3594,161.9531 677.3594,162.5625 L677.3594,164.0156 Q677.3594,164.625 677.125,164.8906 Q676.8906,165.1563 676.5156,165.1563 Q676.1719,165.1563 675.9688,164.9531 Q675.7656,164.7656 675.6563,164.25 Q675.6094,163.8906 675.4219,163.7031 Q675.0938,163.3281 674.4844,163.1094 Q673.875,162.8906 673.25,162.8906 Q672.4844,162.8906 671.8438,163.2188 Q671.2188,163.5469 670.7188,164.2969 Q670.2344,165.0469 670.2344,166.0781 L670.2344,167.1719 Q670.2344,168.4063 671.125,169.2344 Q672.0156,170.0469 673.6094,170.0469 Q674.5469,170.0469 675.2031,169.7969 Q675.5938,169.6406 676.0156,169.2031 Q676.2813,168.9375 676.4219,168.8594 Q676.5781,168.7813 676.7813,168.7813 Q677.1094,168.7813 677.3594,169.0469 Q677.625,169.2969 677.625,169.6406 Q677.625,169.9844 677.2813,170.3906 Q676.7813,170.9688 675.9844,171.2969 Q674.9063,171.75 673.6094,171.75 Q672.0938,171.75 670.8906,171.125 Q669.9063,170.625 669.2188,169.5625 Q668.5313,168.4844 668.5313,167.2031 L668.5313,166.0469 Q668.5313,164.7188 669.1406,163.5781 Q669.7656,162.4219 670.8594,161.8125 Q671.9531,161.1875 673.1875,161.1875 Q673.9219,161.1875 674.5625,161.3594 Q675.2188,161.5156 675.7656,161.875 Z " fill="#000000"/><text fill="#000000" font-family="sans-serif" font-size="14" lengthAdjust="spacing" textLength="154" x="687" y="171.7285">ElectricAutomaticVehicle</text><line style="stroke:#181818;stroke-width:0.5;" x1="659" x2="843" y1="182" y2="182"/><line style="stroke:#181818;stroke-width:0.5;" x1="659" x2="843" y1="190" y2="190"/><ellipse cx="669" cy="204.3047" fill="#84BE84" rx="3" ry="3" style="stroke:#038048;stroke-width:1.0;"/><text fill="#000000" font-family="sans-serif" font-size="14" lengthAdjust="spacing" textLength="72" x="678" y="208.5332">start(): void</text><ellipse cx="669" cy="221.9141" fill="#84BE84" rx="3" ry="3" style="stroke:#038048;stroke-width:1.0;"/><text fill="#000000" font-family="sans-serif" font-size="14" lengthAdjust="spacing" textLength="123" x="678" y="226.1426">changeGear(): void</text></g><!--reverse link Vehicle to GasolineManualVehicle--><g id="link_Vehicle_GasolineManualVehicle"><path codeLine="27" d="M337.9226,88.1772 C288.4126,109.2072 239.67,129.91 187.21,152.19 " fill="none" id="Vehicle-backto-GasolineManualVehicle" style="stroke:#181818;stroke-width:1.0;"/><polygon fill="none" points="354.49,81.14,335.5769,82.6547,340.2684,93.6997,354.49,81.14" style="stroke:#181818;stroke-width:1.0;"/></g><!--reverse link Vehicle to GasolineAutomaticVehicle--><g id="link_Vehicle_GasolineAutomaticVehicle"><path codeLine="28" d="M386.4629,104.5223 C372.0029,123.2323 365.91,131.11 351.46,149.81 " fill="none" id="Vehicle-backto-GasolineAutomaticVehicle" style="stroke:#181818;stroke-width:1.0;"/><polygon fill="none" points="397.47,90.28,381.7154,100.8532,391.2103,108.1913,397.47,90.28" style="stroke:#181818;stroke-width:1.0;"/></g><!--reverse link Vehicle to ElectricManualVehicle--><g id="link_Vehicle_ElectricManualVehicle"><path codeLine="29" d="M471.5371,104.5223 C485.9971,123.2323 492.09,131.11 506.54,149.81 " fill="none" id="Vehicle-backto-ElectricManualVehicle" style="stroke:#181818;stroke-width:1.0;"/><polygon fill="none" points="460.53,90.28,466.7897,108.1913,476.2846,100.8532,460.53,90.28" style="stroke:#181818;stroke-width:1.0;"/></g><!--reverse link Vehicle to ElectricAutomaticVehicle--><g id="link_Vehicle_ElectricAutomaticVehicle"><path codeLine="30" d="M520.1682,89.4207 C566.2482,109.6007 609.22,128.42 658.3,149.91 " fill="none" id="Vehicle-backto-ElectricAutomaticVehicle" style="stroke:#181818;stroke-width:1.0;"/><polygon fill="none" points="503.68,82.2,517.7613,94.9168,522.5751,83.9247,503.68,82.2" style="stroke:#181818;stroke-width:1.0;"/></g><!--SRC=[IqmgBYbAJ2vHICv9B2vM24lDo4pEILMevb800ktYaiIY4WrDAuMo_CmKY51oHc9UUgfxQc8HNBoMYmkYspsnE3ydCo_LDp6lD347QXPbHZcMbkJd9fPa9bFcCjUSrEIIeina59THQ1R5JeFfiwdHrSKUTjYLe5kCgWghLx4hmJ080000]--></g></svg>