<?xml version="1.0" encoding="us-ascii" standalone="no"?><svg xmlns="http://www.w3.org/2000/svg" xmlns:xlink="http://www.w3.org/1999/xlink" contentStyleType="text/css" height="313px" preserveAspectRatio="none" style="width:337px;height:313px;background:#FFFFFF;" version="1.1" viewBox="0 0 337 313" width="337px" zoomAndPan="magnify"><defs/><g><!--class Cliente--><g id="elem_Cliente"><rect codeLine="1" fill="#F1F1F1" height="48" id="Cliente" rx="2.5" ry="2.5" style="stroke:#181818;stroke-width:0.5;" width="76" x="134" y="7"/><ellipse cx="149" cy="23" fill="#ADD1B2" rx="11" ry="11" style="stroke:#181818;stroke-width:1.0;"/><path d="M151.7656,18.875 Q151.9219,18.6563 152.1094,18.5469 Q152.2969,18.4375 152.5156,18.4375 Q152.8906,18.4375 153.125,18.7031 Q153.3594,18.9531 153.3594,19.5625 L153.3594,21.0156 Q153.3594,21.625 153.125,21.8906 Q152.8906,22.1563 152.5156,22.1563 Q152.1719,22.1563 151.9688,21.9531 Q151.7656,21.7656 151.6563,21.25 Q151.6094,20.8906 151.4219,20.7031 Q151.0938,20.3281 150.4844,20.1094 Q149.875,19.8906 149.25,19.8906 Q148.4844,19.8906 147.8438,20.2188 Q147.2188,20.5469 146.7188,21.2969 Q146.2344,22.0469 146.2344,23.0781 L146.2344,24.1719 Q146.2344,25.4063 147.125,26.2344 Q148.0156,27.0469 149.6094,27.0469 Q150.5469,27.0469 151.2031,26.7969 Q151.5938,26.6406 152.0156,26.2031 Q152.2813,25.9375 152.4219,25.8594 Q152.5781,25.7813 152.7813,25.7813 Q153.1094,25.7813 153.3594,26.0469 Q153.625,26.2969 153.625,26.6406 Q153.625,26.9844 153.2813,27.3906 Q152.7813,27.9688 151.9844,28.2969 Q150.9063,28.75 149.6094,28.75 Q148.0938,28.75 146.8906,28.125 Q145.9063,27.625 145.2188,26.5625 Q144.5313,25.4844 144.5313,24.2031 L144.5313,23.0469 Q144.5313,21.7188 145.1406,20.5781 Q145.7656,19.4219 146.8594,18.8125 Q147.9531,18.1875 149.1875,18.1875 Q149.9219,18.1875 150.5625,18.3594 Q151.2188,18.5156 151.7656,18.875 Z " fill="#000000"/><text fill="#000000" font-family="sans-serif" font-size="14" lengthAdjust="spacing" textLength="44" x="163" y="28.7285">Cliente</text><line style="stroke:#181818;stroke-width:0.5;" x1="135" x2="209" y1="39" y2="39"/><line style="stroke:#181818;stroke-width:0.5;" x1="135" x2="209" y1="47" y2="47"/></g><!--class Base--><g id="elem_Base"><rect codeLine="7" fill="#F1F1F1" height="65.6094" id="Base" rx="2.5" ry="2.5" style="stroke:#181818;stroke-width:0.5;" width="131" x="106.5" y="115"/><ellipse cx="151.75" cy="131" fill="#ADD1B2" rx="11" ry="11" style="stroke:#181818;stroke-width:1.0;"/><path d="M154.5156,126.875 Q154.6719,126.6563 154.8594,126.5469 Q155.0469,126.4375 155.2656,126.4375 Q155.6406,126.4375 155.875,126.7031 Q156.1094,126.9531 156.1094,127.5625 L156.1094,129.0156 Q156.1094,129.625 155.875,129.8906 Q155.6406,130.1563 155.2656,130.1563 Q154.9219,130.1563 154.7188,129.9531 Q154.5156,129.7656 154.4063,129.25 Q154.3594,128.8906 154.1719,128.7031 Q153.8438,128.3281 153.2344,128.1094 Q152.625,127.8906 152,127.8906 Q151.2344,127.8906 150.5938,128.2188 Q149.9688,128.5469 149.4688,129.2969 Q148.9844,130.0469 148.9844,131.0781 L148.9844,132.1719 Q148.9844,133.4063 149.875,134.2344 Q150.7656,135.0469 152.3594,135.0469 Q153.2969,135.0469 153.9531,134.7969 Q154.3438,134.6406 154.7656,134.2031 Q155.0313,133.9375 155.1719,133.8594 Q155.3281,133.7813 155.5313,133.7813 Q155.8594,133.7813 156.1094,134.0469 Q156.375,134.2969 156.375,134.6406 Q156.375,134.9844 156.0313,135.3906 Q155.5313,135.9688 154.7344,136.2969 Q153.6563,136.75 152.3594,136.75 Q150.8438,136.75 149.6406,136.125 Q148.6563,135.625 147.9688,134.5625 Q147.2813,133.4844 147.2813,132.2031 L147.2813,131.0469 Q147.2813,129.7188 147.8906,128.5781 Q148.5156,127.4219 149.6094,126.8125 Q150.7031,126.1875 151.9375,126.1875 Q152.6719,126.1875 153.3125,126.3594 Q153.9688,126.5156 154.5156,126.875 Z " fill="#000000"/><text fill="#000000" font-family="sans-serif" font-size="14" lengthAdjust="spacing" textLength="32" x="172.25" y="136.7285">Base</text><line style="stroke:#181818;stroke-width:0.5;" x1="107.5" x2="236.5" y1="147" y2="147"/><line style="stroke:#181818;stroke-width:0.5;" x1="107.5" x2="236.5" y1="155" y2="155"/><ellipse cx="117.5" cy="169.3047" fill="#84BE84" rx="3" ry="3" style="stroke:#038048;stroke-width:1.0;"/><text fill="#000000" font-family="sans-serif" font-size="14" lengthAdjust="spacing" textLength="105" x="126.5" y="173.5332">m([0..30]):[0..70]</text></g><!--class A--><g id="elem_A"><rect codeLine="11" fill="#F1F1F1" height="65.6094" id="A" rx="2.5" ry="2.5" style="stroke:#181818;stroke-width:0.5;" width="152" x="7" y="241"/><ellipse cx="74.25" cy="257" fill="#ADD1B2" rx="11" ry="11" style="stroke:#181818;stroke-width:1.0;"/><path d="M77.0156,252.875 Q77.1719,252.6563 77.3594,252.5469 Q77.5469,252.4375 77.7656,252.4375 Q78.1406,252.4375 78.375,252.7031 Q78.6094,252.9531 78.6094,253.5625 L78.6094,255.0156 Q78.6094,255.625 78.375,255.8906 Q78.1406,256.1563 77.7656,256.1563 Q77.4219,256.1563 77.2188,255.9531 Q77.0156,255.7656 76.9063,255.25 Q76.8594,254.8906 76.6719,254.7031 Q76.3438,254.3281 75.7344,254.1094 Q75.125,253.8906 74.5,253.8906 Q73.7344,253.8906 73.0938,254.2188 Q72.4688,254.5469 71.9688,255.2969 Q71.4844,256.0469 71.4844,257.0781 L71.4844,258.1719 Q71.4844,259.4063 72.375,260.2344 Q73.2656,261.0469 74.8594,261.0469 Q75.7969,261.0469 76.4531,260.7969 Q76.8438,260.6406 77.2656,260.2031 Q77.5313,259.9375 77.6719,259.8594 Q77.8281,259.7813 78.0313,259.7813 Q78.3594,259.7813 78.6094,260.0469 Q78.875,260.2969 78.875,260.6406 Q78.875,260.9844 78.5313,261.3906 Q78.0313,261.9688 77.2344,262.2969 Q76.1563,262.75 74.8594,262.75 Q73.3438,262.75 72.1406,262.125 Q71.1563,261.625 70.4688,260.5625 Q69.7813,259.4844 69.7813,258.2031 L69.7813,257.0469 Q69.7813,255.7188 70.3906,254.5781 Q71.0156,253.4219 72.1094,252.8125 Q73.2031,252.1875 74.4375,252.1875 Q75.1719,252.1875 75.8125,252.3594 Q76.4688,252.5156 77.0156,252.875 Z " fill="#000000"/><text fill="#000000" font-family="sans-serif" font-size="14" lengthAdjust="spacing" textLength="9" x="94.75" y="262.7285">A</text><line style="stroke:#181818;stroke-width:0.5;" x1="8" x2="158" y1="273" y2="273"/><line style="stroke:#181818;stroke-width:0.5;" x1="8" x2="158" y1="281" y2="281"/><ellipse cx="18" cy="295.3047" fill="#84BE84" rx="3" ry="3" style="stroke:#038048;stroke-width:1.0;"/><text fill="#000000" font-family="sans-serif" font-size="14" lengthAdjust="spacing" textLength="126" x="27" y="299.5332">m([-300..300]):[0..7]</text></g><!--class B--><g id="elem_B"><rect codeLine="15" fill="#F1F1F1" height="65.6094" id="B" rx="2.5" ry="2.5" style="stroke:#181818;stroke-width:0.5;" width="136" x="194" y="241"/><ellipse cx="253.25" cy="257" fill="#ADD1B2" rx="11" ry="11" style="stroke:#181818;stroke-width:1.0;"/><path d="M256.0156,252.875 Q256.1719,252.6563 256.3594,252.5469 Q256.5469,252.4375 256.7656,252.4375 Q257.1406,252.4375 257.375,252.7031 Q257.6094,252.9531 257.6094,253.5625 L257.6094,255.0156 Q257.6094,255.625 257.375,255.8906 Q257.1406,256.1563 256.7656,256.1563 Q256.4219,256.1563 256.2188,255.9531 Q256.0156,255.7656 255.9063,255.25 Q255.8594,254.8906 255.6719,254.7031 Q255.3438,254.3281 254.7344,254.1094 Q254.125,253.8906 253.5,253.8906 Q252.7344,253.8906 252.0938,254.2188 Q251.4688,254.5469 250.9688,255.2969 Q250.4844,256.0469 250.4844,257.0781 L250.4844,258.1719 Q250.4844,259.4063 251.375,260.2344 Q252.2656,261.0469 253.8594,261.0469 Q254.7969,261.0469 255.4531,260.7969 Q255.8438,260.6406 256.2656,260.2031 Q256.5313,259.9375 256.6719,259.8594 Q256.8281,259.7813 257.0313,259.7813 Q257.3594,259.7813 257.6094,260.0469 Q257.875,260.2969 257.875,260.6406 Q257.875,260.9844 257.5313,261.3906 Q257.0313,261.9688 256.2344,262.2969 Q255.1563,262.75 253.8594,262.75 Q252.3438,262.75 251.1406,262.125 Q250.1563,261.625 249.4688,260.5625 Q248.7813,259.4844 248.7813,258.2031 L248.7813,257.0469 Q248.7813,255.7188 249.3906,254.5781 Q250.0156,253.4219 251.1094,252.8125 Q252.2031,252.1875 253.4375,252.1875 Q254.1719,252.1875 254.8125,252.3594 Q255.4688,252.5156 256.0156,252.875 Z " fill="#000000"/><text fill="#000000" font-family="sans-serif" font-size="14" lengthAdjust="spacing" textLength="9" x="273.75" y="262.7285">B</text><line style="stroke:#181818;stroke-width:0.5;" x1="195" x2="329" y1="273" y2="273"/><line style="stroke:#181818;stroke-width:0.5;" x1="195" x2="329" y1="281" y2="281"/><ellipse cx="205" cy="295.3047" fill="#84BE84" rx="3" ry="3" style="stroke:#038048;stroke-width:1.0;"/><text fill="#000000" font-family="sans-serif" font-size="14" lengthAdjust="spacing" textLength="110" x="214" y="299.5332">m([0..3]):[-70..70]</text></g><!--link Cliente to Base--><g id="link_Cliente_Base"><path codeLine="5" d="M172,55.27 C172,72.34 172,89.72 172,108.61 " fill="none" id="Cliente-to-Base" style="stroke:#181818;stroke-width:1.0;stroke-dasharray:7.0,7.0;"/><polygon fill="#181818" points="172,114.61,176,105.61,172,109.61,168,105.61,172,114.61" style="stroke:#181818;stroke-width:1.0;"/></g><!--reverse link Base to A--><g id="link_Base_A"><path codeLine="19" d="M138.3516,195.8813 C125.1616,214.2513 119.2,222.56 106.04,240.91 " fill="none" id="Base-backto-A" style="stroke:#181818;stroke-width:1.0;"/><polygon fill="none" points="148.85,181.26,133.4778,192.3819,143.2254,199.3808,148.85,181.26" style="stroke:#181818;stroke-width:1.0;"/></g><!--reverse link Base to B--><g id="link_Base_B"><path codeLine="20" d="M205.9815,195.8286 C219.3115,214.1986 225.39,222.56 238.71,240.91 " fill="none" id="Base-backto-B" style="stroke:#181818;stroke-width:1.0;"/><polygon fill="none" points="195.41,181.26,201.1253,199.3524,210.8377,192.3047,195.41,181.26" style="stroke:#181818;stroke-width:1.0;"/></g><!--SRC=[Iyv9B2vMSCx9JCqhILLGgERYgkNYWd7rzEmKd1ABKxcuai7AG6oG6WK5ROLSZMW3FJrZWrXDAn33t20Mf1EYpX6XHjVO0AmChWv9cHEgKI0LkkO8iy2ssTJefkINv-agEABndG00]--></g></svg>