<?xml version="1.0" encoding="us-ascii" standalone="no"?><svg xmlns="http://www.w3.org/2000/svg" xmlns:xlink="http://www.w3.org/1999/xlink" contentStyleType="text/css" height="344px" preserveAspectRatio="none" style="width:337px;height:344px;background:#FFFFFF;" version="1.1" viewBox="0 0 337 344" width="337px" zoomAndPan="magnify"><defs/><g><!--class Cliente--><g id="elem_Cliente"><rect codeLine="1" fill="#F1F1F1" height="48" id="Cliente" rx="2.5" ry="2.5" style="stroke:#181818;stroke-width:0.5;" width="76" x="134" y="7"/><ellipse cx="149" cy="23" fill="#ADD1B2" rx="11" ry="11" style="stroke:#181818;stroke-width:1.0;"/><path d="M151.7656,18.875 Q151.9219,18.6563 152.1094,18.5469 Q152.2969,18.4375 152.5156,18.4375 Q152.8906,18.4375 153.125,18.7031 Q153.3594,18.9531 153.3594,19.5625 L153.3594,21.0156 Q153.3594,21.625 153.125,21.8906 Q152.8906,22.1563 152.5156,22.1563 Q152.1719,22.1563 151.9688,21.9531 Q151.7656,21.7656 151.6563,21.25 Q151.6094,20.8906 151.4219,20.7031 Q151.0938,20.3281 150.4844,20.1094 Q149.875,19.8906 149.25,19.8906 Q148.4844,19.8906 147.8438,20.2188 Q147.2188,20.5469 146.7188,21.2969 Q146.2344,22.0469 146.2344,23.0781 L146.2344,24.1719 Q146.2344,25.4063 147.125,26.2344 Q148.0156,27.0469 149.6094,27.0469 Q150.5469,27.0469 151.2031,26.7969 Q151.5938,26.6406 152.0156,26.2031 Q152.2813,25.9375 152.4219,25.8594 Q152.5781,25.7813 152.7813,25.7813 Q153.1094,25.7813 153.3594,26.0469 Q153.625,26.2969 153.625,26.6406 Q153.625,26.9844 153.2813,27.3906 Q152.7813,27.9688 151.9844,28.2969 Q150.9063,28.75 149.6094,28.75 Q148.0938,28.75 146.8906,28.125 Q145.9063,27.625 145.2188,26.5625 Q144.5313,25.4844 144.5313,24.2031 L144.5313,23.0469 Q144.5313,21.7188 145.1406,20.5781 Q145.7656,19.4219 146.8594,18.8125 Q147.9531,18.1875 149.1875,18.1875 Q149.9219,18.1875 150.5625,18.3594 Q151.2188,18.5156 151.7656,18.875 Z " fill="#000000"/><text fill="#000000" font-family="sans-serif" font-size="14" lengthAdjust="spacing" textLength="44" x="163" y="28.7285">Cliente</text><line style="stroke:#181818;stroke-width:0.5;" x1="135" x2="209" y1="39" y2="39"/><line style="stroke:#181818;stroke-width:0.5;" x1="135" x2="209" y1="47" y2="47"/></g><!--class Base--><g id="elem_Base"><rect codeLine="7" fill="#F1F1F1" height="65.6094" id="Base" rx="2.5" ry="2.5" style="stroke:#181818;stroke-width:0.5;" width="131" x="106.5" y="115"/><ellipse cx="151.75" cy="131" fill="#ADD1B2" rx="11" ry="11" style="stroke:#181818;stroke-width:1.0;"/><path d="M154.5156,126.875 Q154.6719,126.6563 154.8594,126.5469 Q155.0469,126.4375 155.2656,126.4375 Q155.6406,126.4375 155.875,126.7031 Q156.1094,126.9531 156.1094,127.5625 L156.1094,129.0156 Q156.1094,129.625 155.875,129.8906 Q155.6406,130.1563 155.2656,130.1563 Q154.9219,130.1563 154.7188,129.9531 Q154.5156,129.7656 154.4063,129.25 Q154.3594,128.8906 154.1719,128.7031 Q153.8438,128.3281 153.2344,128.1094 Q152.625,127.8906 152,127.8906 Q151.2344,127.8906 150.5938,128.2188 Q149.9688,128.5469 149.4688,129.2969 Q148.9844,130.0469 148.9844,131.0781 L148.9844,132.1719 Q148.9844,133.4063 149.875,134.2344 Q150.7656,135.0469 152.3594,135.0469 Q153.2969,135.0469 153.9531,134.7969 Q154.3438,134.6406 154.7656,134.2031 Q155.0313,133.9375 155.1719,133.8594 Q155.3281,133.7813 155.5313,133.7813 Q155.8594,133.7813 156.1094,134.0469 Q156.375,134.2969 156.375,134.6406 Q156.375,134.9844 156.0313,135.3906 Q155.5313,135.9688 154.7344,136.2969 Q153.6563,136.75 152.3594,136.75 Q150.8438,136.75 149.6406,136.125 Q148.6563,135.625 147.9688,134.5625 Q147.2813,133.4844 147.2813,132.2031 L147.2813,131.0469 Q147.2813,129.7188 147.8906,128.5781 Q148.5156,127.4219 149.6094,126.8125 Q150.7031,126.1875 151.9375,126.1875 Q152.6719,126.1875 153.3125,126.3594 Q153.9688,126.5156 154.5156,126.875 Z " fill="#000000"/><text fill="#000000" font-family="sans-serif" font-size="14" lengthAdjust="spacing" textLength="32" x="172.25" y="136.7285">Base</text><line style="stroke:#181818;stroke-width:0.5;" x1="107.5" x2="236.5" y1="147" y2="147"/><line style="stroke:#181818;stroke-width:0.5;" x1="107.5" x2="236.5" y1="155" y2="155"/><ellipse cx="117.5" cy="169.3047" fill="#84BE84" rx="3" ry="3" style="stroke:#038048;stroke-width:1.0;"/><text fill="#000000" font-family="sans-serif" font-size="14" lengthAdjust="spacing" textLength="105" x="126.5" y="173.5332">m([0..30]):[0..70]</text></g><!--class SustituibleDerivada--><g id="elem_SustituibleDerivada"><rect codeLine="11" fill="#F1F1F1" height="96.4375" id="SustituibleDerivada" rx="2.5" ry="2.5" style="stroke:#181818;stroke-width:0.5;" width="152" x="7" y="241"/><ellipse cx="46.75" cy="272.4141" fill="#ADD1B2" rx="11" ry="11" style="stroke:#181818;stroke-width:1.0;"/><path d="M49.5156,268.2891 Q49.6719,268.0703 49.8594,267.9609 Q50.0469,267.8516 50.2656,267.8516 Q50.6406,267.8516 50.875,268.1172 Q51.1094,268.3672 51.1094,268.9766 L51.1094,270.4297 Q51.1094,271.0391 50.875,271.3047 Q50.6406,271.5703 50.2656,271.5703 Q49.9219,271.5703 49.7188,271.3672 Q49.5156,271.1797 49.4063,270.6641 Q49.3594,270.3047 49.1719,270.1172 Q48.8438,269.7422 48.2344,269.5234 Q47.625,269.3047 47,269.3047 Q46.2344,269.3047 45.5938,269.6328 Q44.9688,269.9609 44.4688,270.7109 Q43.9844,271.4609 43.9844,272.4922 L43.9844,273.5859 Q43.9844,274.8203 44.875,275.6484 Q45.7656,276.4609 47.3594,276.4609 Q48.2969,276.4609 48.9531,276.2109 Q49.3438,276.0547 49.7656,275.6172 Q50.0313,275.3516 50.1719,275.2734 Q50.3281,275.1953 50.5313,275.1953 Q50.8594,275.1953 51.1094,275.4609 Q51.375,275.7109 51.375,276.0547 Q51.375,276.3984 51.0313,276.8047 Q50.5313,277.3828 49.7344,277.7109 Q48.6563,278.1641 47.3594,278.1641 Q45.8438,278.1641 44.6406,277.5391 Q43.6563,277.0391 42.9688,275.9766 Q42.2813,274.8984 42.2813,273.6172 L42.2813,272.4609 Q42.2813,271.1328 42.8906,269.9922 Q43.5156,268.8359 44.6094,268.2266 Q45.7031,267.6016 46.9375,267.6016 Q47.6719,267.6016 48.3125,267.7734 Q48.9688,267.9297 49.5156,268.2891 Z " fill="#000000"/><text fill="#000000" font-family="sans-serif" font-size="14" lengthAdjust="spacing" textLength="9" x="94.25" y="260.5332">A</text><text fill="#000000" font-family="sans-serif" font-size="14" font-style="italic" lengthAdjust="spacing" textLength="65" x="66.25" y="278.1426">Sustituible</text><text fill="#000000" font-family="sans-serif" font-size="14" font-style="italic" lengthAdjust="spacing" textLength="56" x="70.75" y="295.752">Derivada</text><line style="stroke:#181818;stroke-width:0.5;" x1="8" x2="158" y1="303.8281" y2="303.8281"/><line style="stroke:#181818;stroke-width:0.5;" x1="8" x2="158" y1="311.8281" y2="311.8281"/><ellipse cx="18" cy="326.1328" fill="#84BE84" rx="3" ry="3" style="stroke:#038048;stroke-width:1.0;"/><text fill="#000000" font-family="sans-serif" font-size="14" lengthAdjust="spacing" textLength="126" x="27" y="330.3613">m([-300..300]):[0..7]</text></g><!--class InsustituibleDerivada--><g id="elem_InsustituibleDerivada"><rect codeLine="15" fill="#F1F1F1" height="96.4375" id="InsustituibleDerivada" rx="2.5" ry="2.5" style="stroke:#181818;stroke-width:0.5;" width="136" x="194" y="241"/><ellipse cx="222.05" cy="272.4141" fill="#ADD1B2" rx="11" ry="11" style="stroke:#181818;stroke-width:1.0;"/><path d="M224.8156,268.2891 Q224.9719,268.0703 225.1594,267.9609 Q225.3469,267.8516 225.5656,267.8516 Q225.9406,267.8516 226.175,268.1172 Q226.4094,268.3672 226.4094,268.9766 L226.4094,270.4297 Q226.4094,271.0391 226.175,271.3047 Q225.9406,271.5703 225.5656,271.5703 Q225.2219,271.5703 225.0188,271.3672 Q224.8156,271.1797 224.7063,270.6641 Q224.6594,270.3047 224.4719,270.1172 Q224.1438,269.7422 223.5344,269.5234 Q222.925,269.3047 222.3,269.3047 Q221.5344,269.3047 220.8938,269.6328 Q220.2688,269.9609 219.7688,270.7109 Q219.2844,271.4609 219.2844,272.4922 L219.2844,273.5859 Q219.2844,274.8203 220.175,275.6484 Q221.0656,276.4609 222.6594,276.4609 Q223.5969,276.4609 224.2531,276.2109 Q224.6438,276.0547 225.0656,275.6172 Q225.3313,275.3516 225.4719,275.2734 Q225.6281,275.1953 225.8313,275.1953 Q226.1594,275.1953 226.4094,275.4609 Q226.675,275.7109 226.675,276.0547 Q226.675,276.3984 226.3313,276.8047 Q225.8313,277.3828 225.0344,277.7109 Q223.9563,278.1641 222.6594,278.1641 Q221.1438,278.1641 219.9406,277.5391 Q218.9563,277.0391 218.2688,275.9766 Q217.5813,274.8984 217.5813,273.6172 L217.5813,272.4609 Q217.5813,271.1328 218.1906,269.9922 Q218.8156,268.8359 219.9094,268.2266 Q221.0031,267.6016 222.2375,267.6016 Q222.9719,267.6016 223.6125,267.7734 Q224.2688,267.9297 224.8156,268.2891 Z " fill="#000000"/><text fill="#000000" font-family="sans-serif" font-size="14" lengthAdjust="spacing" textLength="9" x="271.95" y="260.5332">B</text><text fill="#000000" font-family="sans-serif" font-size="14" font-style="italic" lengthAdjust="spacing" textLength="75" x="238.95" y="278.1426">Insustituible</text><text fill="#000000" font-family="sans-serif" font-size="14" font-style="italic" lengthAdjust="spacing" textLength="56" x="248.45" y="295.752">Derivada</text><line style="stroke:#181818;stroke-width:0.5;" x1="195" x2="329" y1="303.8281" y2="303.8281"/><line style="stroke:#181818;stroke-width:0.5;" x1="195" x2="329" y1="311.8281" y2="311.8281"/><ellipse cx="205" cy="326.1328" fill="#84BE84" rx="3" ry="3" style="stroke:#038048;stroke-width:1.0;"/><text fill="#000000" font-family="sans-serif" font-size="14" lengthAdjust="spacing" textLength="110" x="214" y="330.3613">m([0..3]):[-70..70]</text></g><!--link Cliente to Base--><g id="link_Cliente_Base"><path codeLine="5" d="M172,55.27 C172,72.34 172,89.72 172,108.61 " fill="none" id="Cliente-to-Base" style="stroke:#181818;stroke-width:1.0;stroke-dasharray:7.0,7.0;"/><polygon fill="#181818" points="172,114.61,176,105.61,172,109.61,168,105.61,172,114.61" style="stroke:#181818;stroke-width:1.0;"/></g><!--reverse link Base to SustituibleDerivada--><g id="link_Base_SustituibleDerivada"><path codeLine="19" d="M141.6515,196.3973 C130.3015,214.1173 125.72,221.28 113.15,240.92 " fill="none" id="Base-backto-SustituibleDerivada" style="stroke:#181818;stroke-width:1.0;"/><polygon fill="none" points="151.36,181.24,136.599,193.1611,146.7039,199.6335,151.36,181.24" style="stroke:#181818;stroke-width:1.0;"/></g><!--reverse link Base to InsustituibleDerivada--><g id="link_Base_InsustituibleDerivada"><path codeLine="20" d="M202.657,196.3468 C214.137,214.0668 218.8,221.28 231.51,240.92 " fill="none" id="Base-backto-InsustituibleDerivada" style="stroke:#181818;stroke-width:1.0;"/><polygon fill="none" points="192.87,181.24,197.6214,199.6091,207.6926,193.0844,192.87,181.24" style="stroke:#181818;stroke-width:1.0;"/></g><!--SRC=[Iyv9B2vMSCx9JCqhILLGgERYgkNYWd7rzEmKd1ABKxcuai7AG6oG6WK5ROLSZMW3FJrZWrXDAn33t20Mf1EYBhYqk2Ipf3GpAIVL9RKeiomn9L4XiLX1oJ4cpoRJ3aaMp8SfiT7Fj5D2cAvhR02s06u3aWMUUSKuh7026uaYZyyIa0qWytND4Nu0-zAcHZSblpnF5vjVq5HWTGm0]--></g></svg>