<?xml version="1.0" encoding="UTF-8" standalone="no"?><svg xmlns="http://www.w3.org/2000/svg" xmlns:xlink="http://www.w3.org/1999/xlink" contentStyleType="text/css" height="494px" preserveAspectRatio="none" style="width:369px;height:494px;background:#FFFFFF;" version="1.1" viewBox="0 0 369 494" width="369px" zoomAndPan="magnify"><defs/><g><!--MD5=[e4381c76bc805a63ed90da338136522b]
class Sistema--><g id="elem_Sistema"><rect codeLine="1" fill="#F1F1F1" height="48" id="Sistema" rx="2.5" ry="2.5" style="stroke:#181818;stroke-width:0.5;" width="85" x="156" y="7"/><ellipse cx="171" cy="23" fill="#ADD1B2" rx="11" ry="11" style="stroke:#181818;stroke-width:1.0;"/><path d="M170.7969,29.7344 Q168.3125,29.7344 166.9844,28.0938 Q165.6719,26.4219 165.6719,23.3125 Q165.6719,20.1875 166.9844,18.5313 Q168.3125,16.875 170.7969,16.875 Q171.5156,16.875 172.1719,17.0313 Q172.8125,17.1875 173.375,17.4844 L173.375,20.2031 Q173.0156,19.8594 172.7188,19.6719 Q172.4219,19.4688 172.1563,19.3438 Q171.8438,19.2031 171.5313,19.1406 Q171.2344,19.0781 170.9219,19.0781 Q169.5938,19.0781 168.9063,20.1406 Q168.2188,21.2344 168.2188,23.3125 Q168.2188,25.4063 168.9063,26.4688 Q169.5938,27.5469 170.9219,27.5469 Q171.5625,27.5469 172.1563,27.2656 Q172.4531,27.1406 172.7344,26.9531 Q173.0313,26.75 173.375,26.4219 L173.375,29.1406 Q172.7969,29.4375 172.1563,29.5938 Q171.5313,29.7344 170.7969,29.7344 Z " fill="#000000"/><text fill="#000000" font-family="sans-serif" font-size="14" lengthAdjust="spacing" textLength="53" x="185" y="28.432">Sistema</text><line style="stroke:#181818;stroke-width:0.5;" x1="157" x2="240" y1="39" y2="39"/><line style="stroke:#181818;stroke-width:0.5;" x1="157" x2="240" y1="47" y2="47"/></g><!--MD5=[93e93e96b74e1f21dc40d1c6a31be5a2]
class SistemaComplejo--><g id="elem_SistemaComplejo"><rect codeLine="2" fill="#F1F1F1" height="48" id="SistemaComplejo" rx="2.5" ry="2.5" style="stroke:#181818;stroke-width:0.5;" width="152" x="58.5" y="115"/><ellipse cx="73.5" cy="131" fill="#ADD1B2" rx="11" ry="11" style="stroke:#181818;stroke-width:1.0;"/><path d="M73.2969,137.7344 Q70.8125,137.7344 69.4844,136.0938 Q68.1719,134.4219 68.1719,131.3125 Q68.1719,128.1875 69.4844,126.5313 Q70.8125,124.875 73.2969,124.875 Q74.0156,124.875 74.6719,125.0313 Q75.3125,125.1875 75.875,125.4844 L75.875,128.2031 Q75.5156,127.8594 75.2188,127.6719 Q74.9219,127.4688 74.6563,127.3438 Q74.3438,127.2031 74.0313,127.1406 Q73.7344,127.0781 73.4219,127.0781 Q72.0938,127.0781 71.4063,128.1406 Q70.7188,129.2344 70.7188,131.3125 Q70.7188,133.4063 71.4063,134.4688 Q72.0938,135.5469 73.4219,135.5469 Q74.0625,135.5469 74.6563,135.2656 Q74.9531,135.1406 75.2344,134.9531 Q75.5313,134.75 75.875,134.4219 L75.875,137.1406 Q75.2969,137.4375 74.6563,137.5938 Q74.0313,137.7344 73.2969,137.7344 Z " fill="#000000"/><text fill="#000000" font-family="sans-serif" font-size="14" lengthAdjust="spacing" textLength="120" x="87.5" y="136.432">Sistema Complejo</text><line style="stroke:#181818;stroke-width:0.5;" x1="59.5" x2="209.5" y1="147" y2="147"/><line style="stroke:#181818;stroke-width:0.5;" x1="59.5" x2="209.5" y1="155" y2="155"/></g><!--MD5=[ec93e680e5c079a1bb6337ff2b922fa4]
class Software--><g id="elem_Software"><rect codeLine="7" fill="#F1F1F1" height="48" id="Software" rx="2.5" ry="2.5" style="stroke:#181818;stroke-width:0.5;" width="91" x="149" y="331"/><ellipse cx="164" cy="347" fill="#ADD1B2" rx="11" ry="11" style="stroke:#181818;stroke-width:1.0;"/><path d="M163.7969,353.7344 Q161.3125,353.7344 159.9844,352.0938 Q158.6719,350.4219 158.6719,347.3125 Q158.6719,344.1875 159.9844,342.5313 Q161.3125,340.875 163.7969,340.875 Q164.5156,340.875 165.1719,341.0313 Q165.8125,341.1875 166.375,341.4844 L166.375,344.2031 Q166.0156,343.8594 165.7188,343.6719 Q165.4219,343.4688 165.1563,343.3438 Q164.8438,343.2031 164.5313,343.1406 Q164.2344,343.0781 163.9219,343.0781 Q162.5938,343.0781 161.9063,344.1406 Q161.2188,345.2344 161.2188,347.3125 Q161.2188,349.4063 161.9063,350.4688 Q162.5938,351.5469 163.9219,351.5469 Q164.5625,351.5469 165.1563,351.2656 Q165.4531,351.1406 165.7344,350.9531 Q166.0313,350.75 166.375,350.4219 L166.375,353.1406 Q165.7969,353.4375 165.1563,353.5938 Q164.5313,353.7344 163.7969,353.7344 Z " fill="#000000"/><text fill="#000000" font-family="sans-serif" font-size="14" lengthAdjust="spacing" textLength="59" x="178" y="352.432">Software</text><line style="stroke:#181818;stroke-width:0.5;" x1="150" x2="239" y1="363" y2="363"/><line style="stroke:#181818;stroke-width:0.5;" x1="150" x2="239" y1="371" y2="371"/></g><!--MD5=[75fc1eba2c71d851ba5d58ff14495b9b]
class Informacion--><g id="elem_Informacion"><rect codeLine="6" fill="#F1F1F1" height="48" id="Informacion" rx="2.5" ry="2.5" style="stroke:#181818;stroke-width:0.5;" width="114" x="248.5" y="223"/><ellipse cx="263.5" cy="239" fill="#ADD1B2" rx="11" ry="11" style="stroke:#181818;stroke-width:1.0;"/><path d="M263.2969,245.7344 Q260.8125,245.7344 259.4844,244.0938 Q258.1719,242.4219 258.1719,239.3125 Q258.1719,236.1875 259.4844,234.5313 Q260.8125,232.875 263.2969,232.875 Q264.0156,232.875 264.6719,233.0313 Q265.3125,233.1875 265.875,233.4844 L265.875,236.2031 Q265.5156,235.8594 265.2188,235.6719 Q264.9219,235.4688 264.6563,235.3438 Q264.3438,235.2031 264.0313,235.1406 Q263.7344,235.0781 263.4219,235.0781 Q262.0938,235.0781 261.4063,236.1406 Q260.7188,237.2344 260.7188,239.3125 Q260.7188,241.4063 261.4063,242.4688 Q262.0938,243.5469 263.4219,243.5469 Q264.0625,243.5469 264.6563,243.2656 Q264.9531,243.1406 265.2344,242.9531 Q265.5313,242.75 265.875,242.4219 L265.875,245.1406 Q265.2969,245.4375 264.6563,245.5938 Q264.0313,245.7344 263.2969,245.7344 Z " fill="#000000"/><text fill="#000000" font-family="sans-serif" font-size="14" lengthAdjust="spacing" textLength="82" x="277.5" y="244.432">Informaci贸n</text><line style="stroke:#181818;stroke-width:0.5;" x1="249.5" x2="361.5" y1="255" y2="255"/><line style="stroke:#181818;stroke-width:0.5;" x1="249.5" x2="361.5" y1="263" y2="263"/></g><!--MD5=[35a64b983c79880384a2fd9b61f0c24b]
class Usuario--><g id="elem_Usuario"><rect codeLine="8" fill="#F1F1F1" height="48" id="Usuario" rx="2.5" ry="2.5" style="stroke:#181818;stroke-width:0.5;" width="273" x="7" y="439"/><ellipse cx="22" cy="455" fill="#ADD1B2" rx="11" ry="11" style="stroke:#181818;stroke-width:1.0;"/><path d="M21.7969,461.7344 Q19.3125,461.7344 17.9844,460.0938 Q16.6719,458.4219 16.6719,455.3125 Q16.6719,452.1875 17.9844,450.5313 Q19.3125,448.875 21.7969,448.875 Q22.5156,448.875 23.1719,449.0313 Q23.8125,449.1875 24.375,449.4844 L24.375,452.2031 Q24.0156,451.8594 23.7188,451.6719 Q23.4219,451.4688 23.1563,451.3438 Q22.8438,451.2031 22.5313,451.1406 Q22.2344,451.0781 21.9219,451.0781 Q20.5938,451.0781 19.9063,452.1406 Q19.2188,453.2344 19.2188,455.3125 Q19.2188,457.4063 19.9063,458.4688 Q20.5938,459.5469 21.9219,459.5469 Q22.5625,459.5469 23.1563,459.2656 Q23.4531,459.1406 23.7344,458.9531 Q24.0313,458.75 24.375,458.4219 L24.375,461.1406 Q23.7969,461.4375 23.1563,461.5938 Q22.5313,461.7344 21.7969,461.7344 Z " fill="#000000"/><text fill="#000000" font-family="sans-serif" font-size="14" lengthAdjust="spacing" textLength="241" x="36" y="460.432">Sistema de Informaci贸n del Usuario</text><line style="stroke:#181818;stroke-width:0.5;" x1="8" x2="279" y1="471" y2="471"/><line style="stroke:#181818;stroke-width:0.5;" x1="8" x2="279" y1="479" y2="479"/></g><!--MD5=[2d22c547bfe7267814a0b6e9c8ad476f]
class Hardware--><g id="elem_Hardware"><rect codeLine="16" fill="#F1F1F1" height="48" id="Hardware" rx="2.5" ry="2.5" style="stroke:#181818;stroke-width:0.5;" width="98" x="44.5" y="223"/><ellipse cx="59.5" cy="239" fill="#ADD1B2" rx="11" ry="11" style="stroke:#181818;stroke-width:1.0;"/><path d="M59.2969,245.7344 Q56.8125,245.7344 55.4844,244.0938 Q54.1719,242.4219 54.1719,239.3125 Q54.1719,236.1875 55.4844,234.5313 Q56.8125,232.875 59.2969,232.875 Q60.0156,232.875 60.6719,233.0313 Q61.3125,233.1875 61.875,233.4844 L61.875,236.2031 Q61.5156,235.8594 61.2188,235.6719 Q60.9219,235.4688 60.6563,235.3438 Q60.3438,235.2031 60.0313,235.1406 Q59.7344,235.0781 59.4219,235.0781 Q58.0938,235.0781 57.4063,236.1406 Q56.7188,237.2344 56.7188,239.3125 Q56.7188,241.4063 57.4063,242.4688 Q58.0938,243.5469 59.4219,243.5469 Q60.0625,243.5469 60.6563,243.2656 Q60.9531,243.1406 61.2344,242.9531 Q61.5313,242.75 61.875,242.4219 L61.875,245.1406 Q61.2969,245.4375 60.6563,245.5938 Q60.0313,245.7344 59.2969,245.7344 Z " fill="#000000"/><text fill="#000000" font-family="sans-serif" font-size="14" lengthAdjust="spacing" textLength="66" x="73.5" y="244.432">Hardware</text><line style="stroke:#181818;stroke-width:0.5;" x1="45.5" x2="141.5" y1="255" y2="255"/><line style="stroke:#181818;stroke-width:0.5;" x1="45.5" x2="141.5" y1="263" y2="263"/></g><!--MD5=[ed9ff047bd24f055ebfb523aa4b1bdbe]
reverse link Sistema to SistemaComplejo--><g id="link_Sistema_SistemaComplejo"><path codeLine="4" d="M174.27,72.13 C165.59,86.5 156.11,102.21 148.58,114.68 " fill="none" id="Sistema-backto-SistemaComplejo" style="stroke:#181818;stroke-width:1.0;"/><polygon fill="none" points="168.28,68.5,184.61,55,180.27,75.74,168.28,68.5" style="stroke:#181818;stroke-width:1.0;"/></g><!--MD5=[aea5048efd2a9320a1df157fa889af6b]
reverse link SistemaComplejo to Software--><g id="link_SistemaComplejo_Software"><path codeLine="5" d="M147.63,182.67 C151.54,195.6 155.77,209.86 159.5,223 C170.18,260.59 181.73,304.51 188.52,330.75 " fill="none" id="SistemaComplejo-backto-Software" style="stroke:#181818;stroke-width:1.0;"/><polygon fill="none" points="140.83,184.37,141.7,163.2,154.23,180.29,140.83,184.37" style="stroke:#181818;stroke-width:1.0;"/></g><!--MD5=[a47bc5fa0eeedb6fd73f3573160a31f3]
reverse link SistemaComplejo to Usuario--><g id="link_SistemaComplejo_Usuario"><path codeLine="10" d="M70.41,174.33 C52.93,187.12 36.16,203.39 26.5,223 C17.07,242.14 20.71,250.47 26.5,271 C45.39,338 95.06,404.68 123.24,438.74 " fill="none" id="SistemaComplejo-backto-Usuario" style="stroke:#181818;stroke-width:1.0;"/><polygon fill="none" points="66.66,168.42,87.19,163.14,74.43,180.07,66.66,168.42" style="stroke:#181818;stroke-width:1.0;"/></g><!--MD5=[eb2353c737bb55908092bbe0078510c0]
reverse link Sistema to Informacion--><g id="link_Sistema_Informacion"><path codeLine="11" d="M219.12,73.23 C241.34,117.68 275.94,186.88 293.86,222.72 " fill="none" id="Sistema-backto-Informacion" style="stroke:#181818;stroke-width:1.0;"/><polygon fill="none" points="212.84,76.33,210.15,55.31,225.36,70.07,212.84,76.33" style="stroke:#181818;stroke-width:1.0;"/></g><!--MD5=[a59be46764f62a2fc3f0bfacaa08ec50]
reverse link Informacion to Software--><g id="link_Informacion_Software"><path codeLine="12" d="M266.46,285.28 C250.64,300.39 232.85,317.38 218.92,330.68 " fill="none" id="Informacion-backto-Software" style="stroke:#181818;stroke-width:1.0;"/><polygon fill="none" points="262.12,279.75,281.41,271,271.78,289.88,262.12,279.75" style="stroke:#181818;stroke-width:1.0;"/></g><!--MD5=[60507345599b5c82d8ae6a10c02d2706]
reverse link Informacion to Usuario--><g id="link_Informacion_Usuario"><path codeLine="13" d="M296.63,290.76 C289.43,318 277.17,352.93 257.5,379 C238.77,403.82 210.57,424.44 186.9,438.92 " fill="none" id="Informacion-backto-Usuario" style="stroke:#181818;stroke-width:1.0;"/><polygon fill="none" points="289.83,289.12,301.28,271.29,303.45,292.37,289.83,289.12" style="stroke:#181818;stroke-width:1.0;"/></g><!--MD5=[ac71aa912d4e60db92434e05b1e5120c]
link Software to Usuario--><g id="link_Software_Usuario"><path codeLine="14" d="M183.43,379 C175.67,395.14 165.24,416.82 156.99,433.97 " fill="none" id="Software-to-Usuario" style="stroke:#181818;stroke-width:1.0;"/><polygon fill="#181818" points="154.72,438.68,162.2259,432.3034,156.8874,434.1742,155.0166,428.8356,154.72,438.68" style="stroke:#181818;stroke-width:1.0;"/></g><!--MD5=[7e4a8008fa8ecbd82f4d8d7e83b08b5c]
reverse link SistemaComplejo to Hardware--><g id="link_SistemaComplejo_Hardware"><path codeLine="17" d="M118.23,182.06 C112.88,195.89 107.13,210.76 102.52,222.68 " fill="none" id="SistemaComplejo-backto-Hardware" style="stroke:#181818;stroke-width:1.0;"/><polygon fill="none" points="111.86,179.13,125.6,163,124.92,184.18,111.86,179.13" style="stroke:#181818;stroke-width:1.0;"/></g><!--MD5=[27303d572bce8c8b49a49c71c7766901]
link Hardware to Software--><g id="link_Hardware_Software"><path codeLine="19" d="M123.6985,279.6871 C123.6985,279.6871 150.98,308.32 163.28,321.23 " fill="none" id="Hardware-Software" style="stroke:#181818;stroke-width:1.0;"/><polygon fill="#181818" points="172.28,330.68,168.9598,321.4077,168.8279,327.063,163.1726,326.931,172.28,330.68" style="stroke:#181818;stroke-width:1.0;"/><line style="stroke:#181818;stroke-width:1.0;" x1="168.8279" x2="163.31" y1="327.063" y2="321.27"/><polygon fill="#181818" points="115.42,271,116.6635,278.1031,123.6985,279.6871,122.455,272.5841,115.42,271" style="stroke:#181818;stroke-width:1.0;"/></g><!--MD5=[521ed7c8e76615f8b23b94eb9092dade]
link Hardware to Usuario--><g id="link_Hardware_Usuario"><path codeLine="20" d="M101.6801,282.9953 C101.6801,282.9953 125.87,386.55 135.1,426.05 " fill="none" id="Hardware-Usuario" style="stroke:#181818;stroke-width:1.0;"/><polygon fill="#181818" points="138.06,438.72,139.9075,429.046,136.9225,433.8511,132.1173,430.866,138.06,438.72" style="stroke:#181818;stroke-width:1.0;"/><line style="stroke:#181818;stroke-width:1.0;" x1="136.9225" x2="135.1" y1="433.8511" y2="426.065"/><polygon fill="#181818" points="98.95,271.31,96.4199,278.0627,101.6801,282.9953,104.2102,276.2426,98.95,271.31" style="stroke:#181818;stroke-width:1.0;"/></g><!--MD5=[5103e2189d4ff98c8f9f3c2a9ee343ad]
@startuml
class Sistema
class "Sistema Complejo" as SistemaComplejo

Sistema <|-down- SistemaComplejo
SistemaComplejo <|-down- Software
class "Informaci贸n" as Informacion
class Software
class "Sistema de Informaci贸n del Usuario" as Usuario

SistemaComplejo <|-down- Usuario
Sistema <|-down- Informacion
Informacion <|-down- Software
Informacion <|-down- Usuario
Software -down-> Usuario

class Hardware
SistemaComplejo <|-down- Hardware

Hardware *-down-> Software
Hardware *-down-> Usuario
@enduml

PlantUML version 1.2022.7(Mon Aug 22 19:01:30 CEST 2022)
(GPL source distribution)
Java Runtime: OpenJDK Runtime Environment
JVM: OpenJDK 64-Bit Server VM
Default Encoding: UTF-8
Language: es
Country: ES
--></g></svg>