<?xml version="1.0" encoding="UTF-8" standalone="no"?><svg xmlns="http://www.w3.org/2000/svg" xmlns:xlink="http://www.w3.org/1999/xlink" contentStyleType="text/css" height="287px" preserveAspectRatio="none" style="width:573px;height:287px;background:#FFFFFF;" version="1.1" viewBox="0 0 573 287" width="573px" zoomAndPan="magnify"><defs/><g><!--MD5=[4a378fa5fb3b116af2a7f4b331008540]
entity DesarrolladorSoftware--><g id="elem_DesarrolladorSoftware"><ellipse cx="145.5" cy="14" fill="#F1F1F1" rx="8" ry="8" style="stroke:#181818;stroke-width:0.5;"/><path d="M145.5,22 L145.5,49 M132.5,30 L158.5,30 M145.5,49 L132.5,64 M145.5,49 L158.5,64 " fill="none" style="stroke:#181818;stroke-width:0.5;"/><text fill="#000000" font-family="sans-serif" font-size="14" lengthAdjust="spacing" textLength="155" x="68" y="80.4659">Desarrollador Software</text></g><g id="elem_Requisitar"><ellipse cx="68.3691" cy="161.4759" fill="#F1F1F1" rx="62.3691" ry="16.9759" style="stroke:#181818;stroke-width:0.5;"/><text fill="#000000" font-family="sans-serif" font-size="14" lengthAdjust="spacing" textLength="69" x="30.8691" y="166.2088">Requisitar</text></g><g id="elem_Implantar"><ellipse cx="227.3565" cy="161.4646" fill="#F1F1F1" rx="60.8565" ry="16.9646" style="stroke:#181818;stroke-width:0.5;"/><text fill="#000000" font-family="sans-serif" font-size="14" lengthAdjust="spacing" textLength="67" x="190.8565" y="166.1976">Implantar</text></g><!--MD5=[fee662a292a0353a69bd162820bae93b]
entity User--><g id="elem_User"><ellipse cx="452.5" cy="14" fill="#F1F1F1" rx="8" ry="8" style="stroke:#181818;stroke-width:0.5;"/><path d="M452.5,22 L452.5,49 M439.5,30 L465.5,30 M452.5,49 L439.5,64 M452.5,49 L465.5,64 " fill="none" style="stroke:#181818;stroke-width:0.5;"/><text fill="#000000" font-family="sans-serif" font-size="14" lengthAdjust="spacing" textLength="31" x="437" y="80.4659">User</text></g><g id="elem_Explotar"><ellipse cx="452.282" cy="161.3831" fill="#F1F1F1" rx="51.782" ry="16.8831" style="stroke:#181818;stroke-width:0.5;"/><text fill="#000000" font-family="sans-serif" font-size="14" lengthAdjust="spacing" textLength="55" x="421.782" y="166.1161">Explotar</text></g><!--MD5=[e261510253d963ef59730d9a89d45d2f]
entity Software--><g id="elem_Software"><path d="M179.5,238.5 L251.5,238.5 A3.75,3.75 0 0 1 254,241 L261,263.5679 L275.5,263.5679 A2.5,2.5 0 0 1 278,266.0679 L278,278.0679 A2.5,2.5 0 0 1 275.5,280.5679 L179.5,280.5679 A2.5,2.5 0 0 1 177,278.0679 L177,241 A2.5,2.5 0 0 1 179.5,238.5 " fill="#F1F1F1" style="stroke:#181818;stroke-width:0.5;"/><line style="stroke:#181818;stroke-width:0.5;" x1="177" x2="261" y1="263.5679" y2="263.5679"/><text fill="#000000" font-family="sans-serif" font-size="14" lengthAdjust="spacing" textLength="59" x="187" y="256.4659">Software</text></g><!--MD5=[1954a516d6112cca078371452bf4d269]
entity Resultado--><g id="elem_Resultado"><path d="M459.5,238.5 L539.5,238.5 A3.75,3.75 0 0 1 542,241 L549,263.5679 L563.5,263.5679 A2.5,2.5 0 0 1 566,266.0679 L566,278.0679 A2.5,2.5 0 0 1 563.5,280.5679 L459.5,280.5679 A2.5,2.5 0 0 1 457,278.0679 L457,241 A2.5,2.5 0 0 1 459.5,238.5 " fill="#F1F1F1" style="stroke:#181818;stroke-width:0.5;"/><line style="stroke:#181818;stroke-width:0.5;" x1="457" x2="549" y1="263.5679" y2="263.5679"/><text fill="#000000" font-family="sans-serif" font-size="14" lengthAdjust="spacing" textLength="67" x="467" y="256.4659">Resultado</text></g><!--MD5=[7b2c92828a65582bb28ab322dab5f2da]
entity Requisitos--><g id="elem_Requisitos"><path d="M32,238.5 L115,238.5 A3.75,3.75 0 0 1 117.5,241 L124.5,263.5679 L139,263.5679 A2.5,2.5 0 0 1 141.5,266.0679 L141.5,278.0679 A2.5,2.5 0 0 1 139,280.5679 L32,280.5679 A2.5,2.5 0 0 1 29.5,278.0679 L29.5,241 A2.5,2.5 0 0 1 32,238.5 " fill="#F1F1F1" style="stroke:#181818;stroke-width:0.5;"/><line style="stroke:#181818;stroke-width:0.5;" x1="29.5" x2="124.5" y1="263.5679" y2="263.5679"/><text fill="#000000" font-family="sans-serif" font-size="14" lengthAdjust="spacing" textLength="70" x="39.5" y="256.4659">Requisitos</text></g><!--MD5=[b0ef8615be47fa8e1b92530a98d0774b]
entity Hardware--><g id="elem_Hardware"><path d="M316,238.5 L395,238.5 A3.75,3.75 0 0 1 397.5,241 L404.5,263.5679 L419,263.5679 A2.5,2.5 0 0 1 421.5,266.0679 L421.5,278.0679 A2.5,2.5 0 0 1 419,280.5679 L316,280.5679 A2.5,2.5 0 0 1 313.5,278.0679 L313.5,241 A2.5,2.5 0 0 1 316,238.5 " fill="#F1F1F1" style="stroke:#181818;stroke-width:0.5;"/><line style="stroke:#181818;stroke-width:0.5;" x1="313.5" x2="404.5" y1="263.5679" y2="263.5679"/><text fill="#000000" font-family="sans-serif" font-size="14" lengthAdjust="spacing" textLength="66" x="323.5" y="256.4659">Hardware</text></g><!--MD5=[d9f75b78703733959770a1bae7362de0]
entity Cliente--><g id="elem_Cliente"><ellipse cx="344.5" cy="14" fill="#F1F1F1" rx="8" ry="8" style="stroke:#181818;stroke-width:0.5;"/><path d="M344.5,22 L344.5,49 M331.5,30 L357.5,30 M344.5,49 L331.5,64 M344.5,49 L357.5,64 " fill="none" style="stroke:#181818;stroke-width:0.5;"/><text fill="#000000" font-family="sans-serif" font-size="14" lengthAdjust="spacing" textLength="47" x="321" y="80.4659">Cliente</text></g><!--MD5=[522675676a10b9fc709cce1ff69d7619]
link Requisitar to Requisitos--><g id="link_Requisitar_Requisitos"><path d="M71.38,178.79 C74.03,193.72 77.98,216.06 81.04,233.3 " fill="none" id="Requisitar-to-Requisitos" style="stroke:#181818;stroke-width:1.0;stroke-dasharray:7.0,7.0;"/><polygon fill="#181818" points="81.95,238.47,84.3171,228.9098,81.077,233.5468,76.44,230.3067,81.95,238.47" style="stroke:#181818;stroke-width:1.0;"/></g><!--MD5=[d500cada0c7cbde404adb1101b6d7e89]
link Implantar to Requisitos--><g id="link_Implantar_Requisitos"><path d="M205.31,177.5 C182.29,193.07 145.98,217.61 119.37,235.6 " fill="none" id="Implantar-to-Requisitos" style="stroke:#181818;stroke-width:1.0;stroke-dasharray:7.0,7.0;"/><polygon fill="#181818" points="115.18,238.43,124.8765,236.7044,119.3226,235.6302,120.3968,230.0763,115.18,238.43" style="stroke:#181818;stroke-width:1.0;"/></g><!--MD5=[08275060a91ec5fa09a42fa18c773b8e]
link Implantar to Hardware--><g id="link_Implantar_Hardware"><path d="M249.38,177.5 C272.08,193.07 307.87,217.61 334.11,235.6 " fill="none" id="Implantar-to-Hardware" style="stroke:#181818;stroke-width:1.0;stroke-dasharray:7.0,7.0;"/><polygon fill="#181818" points="338.24,238.43,333.0762,230.0434,334.1152,235.604,328.5546,236.6431,338.24,238.43" style="stroke:#181818;stroke-width:1.0;"/></g><!--MD5=[9ff63edb2f4944cdb21d08f43dd9fa63]
link Implantar to Software--><g id="link_Implantar_Software"><path d="M227.5,178.79 C227.5,193.72 227.5,216.06 227.5,233.3 " fill="none" id="Implantar-to-Software" style="stroke:#181818;stroke-width:1.0;stroke-dasharray:7.0,7.0;"/><polygon fill="#181818" points="227.5,238.47,231.5,229.47,227.5,233.47,223.5,229.47,227.5,238.47" style="stroke:#181818;stroke-width:1.0;"/></g><!--MD5=[6f5079285f74754f9ba942f02f7da7f7]
link Explotar to Hardware--><g id="link_Explotar_Hardware"><path d="M438.84,177.92 C425.32,193.2 404.41,216.81 388.72,234.53 " fill="none" id="Explotar-to-Hardware" style="stroke:#181818;stroke-width:1.0;stroke-dasharray:7.0,7.0;"/><polygon fill="#181818" points="385.26,238.44,394.2212,234.3538,388.5747,234.6967,388.2318,229.0502,385.26,238.44" style="stroke:#181818;stroke-width:1.0;"/></g><!--MD5=[6a85fbd73817c5ea03e6f0ff6fdc043a]
link Explotar to Software--><g id="link_Explotar_Software"><path d="M412.71,172.65 C380.31,181.62 333.82,196.13 295.5,214.5 C283.19,220.4 270.43,228.16 259.34,235.51 " fill="none" id="Explotar-to-Software" style="stroke:#181818;stroke-width:1.0;stroke-dasharray:7.0,7.0;"/><polygon fill="#181818" points="255.02,238.41,264.7206,236.7074,259.1692,235.62,260.2566,230.0687,255.02,238.41" style="stroke:#181818;stroke-width:1.0;"/></g><!--MD5=[f5997e5e79820e44235fb172f9d95abb]
link Explotar to Resultado--><g id="link_Explotar_Resultado"><path d="M462.24,178.35 C471.54,193.47 485.67,216.47 496.42,233.96 " fill="none" id="Explotar-to-Resultado" style="stroke:#181818;stroke-width:1.0;stroke-dasharray:7.0,7.0;"/><polygon fill="#181818" points="499.07,238.28,497.7598,228.5187,496.4495,234.0217,490.9465,232.7115,499.07,238.28" style="stroke:#181818;stroke-width:1.0;"/></g><!--MD5=[7ead8332b4dd6c4e55215fc7e2af27ee]
link Cliente to Explotar--><g id="link_Cliente_Explotar"><path d="M368.2,71.13 C388.11,92.23 416.14,121.95 434.32,141.22 " fill="none" id="Cliente-to-Explotar" style="stroke:#181818;stroke-width:1.0;"/><polygon fill="#181818" points="437.81,144.93,434.5545,135.6347,434.3832,141.289,428.7289,141.1177,437.81,144.93" style="stroke:#181818;stroke-width:1.0;"/></g><!--MD5=[4fe2374e54c0faafd89aee92850b37d2]
link Cliente to Requisitar--><g id="link_Cliente_Requisitar"><path d="M320.57,72.35 C315.58,76.84 310.13,81.14 304.5,84.5 C247.53,118.56 173.56,139.17 123.75,150.16 " fill="none" id="Cliente-to-Requisitar" style="stroke:#181818;stroke-width:1.0;"/><polygon fill="#181818" points="118.7,151.26,128.3424,153.2662,123.5869,150.2026,126.6505,145.4471,118.7,151.26" style="stroke:#181818;stroke-width:1.0;"/></g><!--MD5=[09acc4dcaea59d5c4347bead58e7efa8]
link DesarrolladorSoftware to Requisitar--><g id="link_DesarrolladorSoftware_Requisitar"><path d="M119.43,84.76 C106.83,103.5 92.24,125.2 81.91,140.56 " fill="none" id="DesarrolladorSoftware-to-Requisitar" style="stroke:#181818;stroke-width:1.0;"/><polygon fill="#181818" points="79.12,144.71,87.453,139.4601,81.9034,140.5563,80.8072,135.0067,79.12,144.71" style="stroke:#181818;stroke-width:1.0;"/></g><!--MD5=[f994fff90a65a8a9fca0553c6f36853e]
link DesarrolladorSoftware to Implantar--><g id="link_DesarrolladorSoftware_Implantar"><path d="M173.26,84.76 C186.68,103.5 202.22,125.2 213.22,140.56 " fill="none" id="DesarrolladorSoftware-to-Implantar" style="stroke:#181818;stroke-width:1.0;"/><polygon fill="#181818" points="216.2,144.71,214.2142,135.0634,213.2898,140.6442,207.709,139.7198,216.2,144.71" style="stroke:#181818;stroke-width:1.0;"/></g><!--MD5=[544fe11aa5dcd14e7d953b7373968597]
link User to Explotar--><g id="link_User_Explotar"><path d="M452.5,84.76 C452.5,102.91 452.5,123.83 452.5,139.08 " fill="none" id="User-to-Explotar" style="stroke:#181818;stroke-width:1.0;"/><polygon fill="#181818" points="452.5,144.42,456.5,135.42,452.5,139.42,448.5,135.42,452.5,144.42" style="stroke:#181818;stroke-width:1.0;"/></g><!--MD5=[a3a1a05a00109b439f436d7c677e7f5a]
@startuml
actor Cliente
together {
actor "Desarrollador Software" as DesarrolladorSoftware
usecase Requisitar
usecase Implantar
}
together {
actor User
usecase Explotar
}

together {
package Software
package Resultado
package Requisitos
package Hardware
}

Requisitar ..> Requisitos
Implantar ..> Requisitos
Implantar ..> Hardware
Implantar ..> Software
Explotar ..> Hardware
Explotar ..> Software
Explotar ..> Resultado
Cliente - -> Explotar
Cliente - -> Requisitar
DesarrolladorSoftware - -> Requisitar
DesarrolladorSoftware - -> Implantar
User - -> Explotar
@enduml

PlantUML version 1.2022.7(Mon Aug 22 19:01:30 CEST 2022)
(GPL source distribution)
Java Runtime: OpenJDK Runtime Environment
JVM: OpenJDK 64-Bit Server VM
Default Encoding: UTF-8
Language: es
Country: ES
--></g></svg>